<svg xmlns="http://www.w3.org/2000/svg" viewBox="0 0 165.66 165.78"><defs><style>.cls-1{fill:#d77d63;}</style></defs><g id="Layer_2" data-name="Layer 2"><g id="Layer_1-2" data-name="Layer 1"><path class="cls-1" d="M109.43,158c-1.06-.05-2.13-.08-3.19-.14a10.68,10.68,0,0,0-5.88,1.38c-1.68.93-3.37,1.87-5.08,2.76a34,34,0,0,1-8,3.12,21.81,21.81,0,0,1-18-3.43c-.95-.66-1.93-1.28-2.84-2a9.71,9.71,0,0,0-6.13-2.05c-2.34,0-4.67-.07-7-.16a26,26,0,0,1-9.53-2,24,24,0,0,1-13-13.2c-.33-.77-.66-1.54-1-2.3a7.51,7.51,0,0,0-2.7-3.18c-1.38-.9-2.79-1.78-4.2-2.65a53.56,53.56,0,0,1-6-4.15,24.67,24.67,0,0,1-8-11.46A19.63,19.63,0,0,1,8,110.84c.1-1.38.27-2.75.43-4.13a9.81,9.81,0,0,0-1.08-5.92C6.72,99.67,6,98.6,5.4,97.5c-1-1.78-2-3.54-3-5.35A22.66,22.66,0,0,1,0,82,19.39,19.39,0,0,1,2,73a31.86,31.86,0,0,1,3-4.71c.89-1.23,1.76-2.48,2.57-3.76A6.72,6.72,0,0,0,8.6,60.43c-.09-1.16-.11-2.32-.18-3.47a50.23,50.23,0,0,1,0-6.94,19.24,19.24,0,0,1,2.37-7.81A26.15,26.15,0,0,1,21.87,31.58c1-.54,2.06-1.06,3.1-1.58a10.57,10.57,0,0,0,4.48-4.23c1.12-1.92,2.24-3.84,3.44-5.71a36,36,0,0,1,2.93-4A25.46,25.46,0,0,1,47.18,8.37a20.41,20.41,0,0,1,8-.82c1.49.1,3,.24,4.47.4a9,9,0,0,0,3.82-.45,25.64,25.64,0,0,0,4-1.81c2.1-1.12,4.19-2.27,6.33-3.31A23.94,23.94,0,0,1,84.07,0a18.59,18.59,0,0,1,9.51,2.45C95,3.26,96.34,4.2,97.7,5.1c.85.56,1.68,1.15,2.52,1.73a7.6,7.6,0,0,0,4.36,1.33c2.45,0,4.89.09,7.34.12a27.75,27.75,0,0,1,7.14.92,23.56,23.56,0,0,1,8,4A25.11,25.11,0,0,1,135,23.15c.41.91.84,1.81,1.28,2.7a7.72,7.72,0,0,0,2.35,2.79c.8.58,1.63,1.15,2.45,1.71,2.27,1.54,4.59,3,6.8,4.63a26.08,26.08,0,0,1,7.78,8.89,19.67,19.67,0,0,1,2.09,12.26c-.16,1.15-.33,2.29-.48,3.44a8.12,8.12,0,0,0,.89,4.81c.92,1.79,1.9,3.56,2.84,5.34s2,3.66,2.85,5.57a21.75,21.75,0,0,1,1.19,14,20.55,20.55,0,0,1-3.26,6.84c-.66.95-1.35,1.88-2,2.82a15.28,15.28,0,0,0-1.82,3.1,5.71,5.71,0,0,0-.51,2.37c0,1.3,0,2.59.07,3.88a59.55,59.55,0,0,1,0,7.07,20.9,20.9,0,0,1-4.84,11.7,27.79,27.79,0,0,1-10.09,7.55c-.74.34-1.48.69-2.21,1.07a9.23,9.23,0,0,0-3.68,3.44c-.43.69-.86,1.39-1.25,2.11a54.57,54.57,0,0,1-3.7,6,26.12,26.12,0,0,1-12.93,9.86,20.49,20.49,0,0,1-7,1h-2.25Zm-5.13-51.83a.93.93,0,0,0,0-1c-.22-.4-.46-.78-.69-1.17-1.18-1.93-2.39-3.85-3.54-5.81a27.62,27.62,0,0,1-2.39-5c-.31-.93-.21-1.07.78-1.1,1.81-.06,3.63-.12,5.44-.15,2.52-.06,5-.09,7.56-.14a2.76,2.76,0,0,0,1.39-.26,3.48,3.48,0,0,0-.41-.43,7.61,7.61,0,0,0-.87-.51,83.12,83.12,0,0,1-10.42-6.43c-.3-.22-.56-.49-.9-.79.29-.23.49-.42.71-.57,1.23-.85,2.44-1.74,3.7-2.54,2.24-1.43,4.51-2.8,6.76-4.21a1.63,1.63,0,0,0,.79-.72c-.44-.05-.82-.11-1.19-.13-2.61-.1-5.22-.17-7.82-.31-1.56-.08-3.12-.25-4.68-.4a1.51,1.51,0,0,1-1.11-.41,5.5,5.5,0,0,1,.3-.72c1.09-2,2.17-4.08,3.29-6.11.87-1.57,1.78-3.11,2.68-4.66a1.08,1.08,0,0,0,.21-1,3.14,3.14,0,0,0-.68.07,4.83,4.83,0,0,0-.8.37c-2.54,1.36-5.07,2.74-7.63,4.06-.94.49-1.94.87-2.93,1.27a3.14,3.14,0,0,1-.84.09v-.64c0-.81.12-1.63.11-2.44,0-3.52-.06-7-.1-10.55,0-.22,0-.43-.07-.64-.45-.1-.61.17-.76.41-.38.62-.75,1.25-1.12,1.87-1.28,2.09-2.53,4.19-3.84,6.26a13.59,13.59,0,0,1-1.61,2c-.67.7-.86.64-1.34-.19q-3-5.19-6-10.37a7.64,7.64,0,0,0-.5-.66l-.17,0c0,.29-.09.56-.11.85-.1,1.74-.19,3.49-.3,5.23-.17,2.56-.36,5.11-.55,7.67a6.06,6.06,0,0,1-.23.91,8.27,8.27,0,0,1-.94-.38c-.52-.29-1-.62-1.52-.91-1.8-1-3.61-2-5.39-3.05-1.37-.81-2.7-1.67-4.05-2.5a1.21,1.21,0,0,0-1.08-.24,3.6,3.6,0,0,0,.19.72A10.1,10.1,0,0,0,62.14,62a94.37,94.37,0,0,1,5.31,10.35,6.26,6.26,0,0,1,.31.82c.11.42,0,.54-.4.59h-.27L54.63,74l-1,0a2.83,2.83,0,0,0-.44.11c.17.6.64.81,1.06,1.06,1.21.72,2.46,1.38,3.63,2.15,2.19,1.42,4.34,2.9,6.5,4.36a5.41,5.41,0,0,1,.63.59,11.15,11.15,0,0,1-1,.77L56.87,87.8c-.93.61-1.86,1.21-2.78,1.83-.19.13-.46.25-.4.64.29,0,.6.11.91.13,2,.09,3.94.17,5.91.27a62.94,62.94,0,0,1,6.72.53,5.7,5.7,0,0,1,.7.19,9.27,9.27,0,0,1-1.07,2.36c-1.73,3-3.48,5.9-5.22,8.85-.2.33-.39.66-.56,1a2.87,2.87,0,0,0-.06.63c.42-.15.72-.23,1-.36.93-.47,1.85-1,2.78-1.44,2.09-1.08,4.18-2.18,6.29-3.23a19.59,19.59,0,0,1,2.08-.83,1.45,1.45,0,0,1,1,0v.6q-.1,6-.2,12c0,.43,0,.86.07,1.29a2.08,2.08,0,0,0,.19.48,1.9,1.9,0,0,0,.86-.92c.81-1.34,1.56-2.72,2.4-4,1.31-2.07,2.66-4.11,4-6.15.61-.91.89-.86,1.39.09,1.06,2,2.1,4,3.22,6,1,1.73,2.06,3.42,3.1,5.12.12.2.21.45.49.48,0-.06.1-.09.1-.13,0-.24,0-.49,0-.74q0-5.55.35-11.09c0-.63,0-1.27.07-1.9.1-.92.4-1.06,1.2-.6l8.17,4.76c1.16.68,2.29,1.39,3.45,2.06A12.76,12.76,0,0,0,104.3,106.19Zm42.54-40.75-.4-.1a39.24,39.24,0,0,1-6.32-1.59,29.22,29.22,0,0,1-5.63-2.86,6.18,6.18,0,0,0-4.16-.92c-1,.13-2.08.2-3.11.35-1.53.21-3.06.42-4.57.73A15.29,15.29,0,0,0,118,63q-8.51,5-17,10a4.11,4.11,0,0,0-.35.29c.09.06.13.1.17.1,1.35.08,2.71.18,4.07.22l11.64.28a18.51,18.51,0,0,1,2,.17,7.14,7.14,0,0,1,4.56,2.48c.71.82,1.37,1.69,2,2.54a9.86,9.86,0,0,0,2.66,2.41,4,4,0,0,0,2,.57,14.73,14.73,0,0,0,4-.55A16.47,16.47,0,0,0,138.11,80a3.49,3.49,0,0,0,1.32-1.24c.53-.87,1.11-1.71,1.61-2.6q2.81-5.1,5.57-10.21C146.68,65.81,146.74,65.66,146.84,65.44Zm-82.26,27c-.44-.06-.74-.13-1-.15-2.19-.09-4.39-.2-6.59-.27-3.08-.1-6.17-.17-9.25-.28a7.16,7.16,0,0,1-5.61-2.89c-.55-.69-1.07-1.41-1.59-2.12a7.9,7.9,0,0,0-2.57-2.38,3.72,3.72,0,0,0-2.07-.57,20.4,20.4,0,0,0-7.46,1.94,4.12,4.12,0,0,0-1.76,1.55c-.87,1.4-1.78,2.79-2.64,4.2-1.71,2.83-3.4,5.68-5.1,8.52a1.49,1.49,0,0,0-.07.25l.22.07a24.87,24.87,0,0,1,10.06,3.52c1,.6,2,1.19,3,1.77a3.8,3.8,0,0,0,2.55.5c1.57-.21,3.14-.44,4.71-.67a19.33,19.33,0,0,0,6.35-1.93c1.83-1,3.66-2,5.46-3.05,4.34-2.54,8.66-5.12,13-7.68C64.26,92.71,64.35,92.62,64.58,92.45Zm39.07-8.37,0,.17a6.14,6.14,0,0,0,.53.4c1.4.85,2.78,1.71,4.19,2.54,2.9,1.69,5.82,3.35,8.71,5a18,18,0,0,1,2.16,1.53,6,6,0,0,1,2.21,3.58,20.41,20.41,0,0,1,.31,2.49,13.47,13.47,0,0,0,.54,3.34,4.79,4.79,0,0,0,2.55,3.12,21.76,21.76,0,0,0,7.07,1.86,4.08,4.08,0,0,0,1.45-.26,4.32,4.32,0,0,0,.91-.46l12.46-7.11a2.32,2.32,0,0,0,.3-.22.76.76,0,0,0-.08-.16,4.61,4.61,0,0,0-.4-.37,29.29,29.29,0,0,1-6.13-7.23c-.62-1-1.23-2.07-1.8-3.13a5.34,5.34,0,0,0-2.95-2.58c-1.58-.57-3.16-1.13-4.73-1.71a17.63,17.63,0,0,0-6.14-1.06c-6.82,0-13.65.1-20.48.15C104.08,84,103.87,84.06,103.65,84.08Zm26-48.09a.75.75,0,0,0-.21,0l-.38.14a27.05,27.05,0,0,1-7.94,1.77c-1.67.13-3.35.18-5,.19a5.73,5.73,0,0,0-3.21.93c-1.35.88-2.68,1.79-4,2.75a20.26,20.26,0,0,0-5.35,5.9c-2.79,4.68-5.63,9.32-8.43,14-.57,1-1.08,2-1.6,2.93a4.49,4.49,0,0,0-.22.66c.39-.18.62-.28.83-.39,3.58-1.92,7.15-3.85,10.74-5.74,1.34-.71,2.72-1.36,4.1-2a6.59,6.59,0,0,1,4-.59,15.8,15.8,0,0,1,2.46.75c1.1.41,2.16.94,3.27,1.32a5,5,0,0,0,5.44-1.09c1.43-1.36,2.85-2.72,4.26-4.1a5.41,5.41,0,0,0,.59-.75,2.05,2.05,0,0,0,.42-1.26c.05-1.32.13-2.63.15-4,0-3.69,0-7.39.06-11.09C129.68,36.23,129.66,36.12,129.65,36ZM66,147.33c.32-.35.6-.67.9-1a30.2,30.2,0,0,1,5.36-4.27c1.39-.87,2.79-1.7,4.22-2.49a4.8,4.8,0,0,0,2.23-2.47c.55-1.39,1.08-2.79,1.68-4.16A19.33,19.33,0,0,0,82,124.15c-.1-2.1-.13-4.21-.19-6.32q-.18-6.42-.38-12.85c0-.14-.06-.28-.11-.55a5.69,5.69,0,0,0-.49.6c-.37.58-.73,1.16-1.07,1.74-1.55,2.61-3.08,5.24-4.66,7.84-.9,1.49-1.85,3-2.84,4.39a6.22,6.22,0,0,1-4,2.56c-1.07.22-2.15.36-3.22.56a6.75,6.75,0,0,0-5.36,4A28.61,28.61,0,0,0,58,131.48a3.16,3.16,0,0,0,.23,2.12c.48,1,.94,2,1.49,3,2,3.44,4,6.85,6,10.27C65.79,147,65.9,147.13,66,147.33Zm5.62-46.44-.13-.15c-.66.28-1.33.53-2,.87-3,1.6-6.08,3.23-9.13,4.83-1.41.73-2.82,1.45-4.27,2.09a6.58,6.58,0,0,1-4.51.49,26.91,26.91,0,0,1-2.56-.91c-.93-.36-1.83-.8-2.77-1.12a3.59,3.59,0,0,0-2.6,0A9.2,9.2,0,0,0,42,108a25.82,25.82,0,0,0-4.66,4.26,4,4,0,0,0-1,2.46c-.07,2.27-.2,4.53-.21,6.8,0,2.49.05,5,.09,7.48,0,.17,0,.34,0,.59l.69-.21a29.5,29.5,0,0,1,8.53-1.53c1.32,0,2.63,0,4,0a6.21,6.21,0,0,0,3.36-.9c1-.6,1.94-1.18,2.9-1.79a16.32,16.32,0,0,0,5.41-5.82q2.59-4.55,5.2-9.09l5.11-8.82C71.52,101.21,71.59,101,71.66,100.89Zm-52.95-35s0,.07,0,.09a6.55,6.55,0,0,0,.56.49,21.73,21.73,0,0,1,6.37,7.68c.49,1,1.05,1.91,1.54,2.88a3.67,3.67,0,0,0,2,1.83c1.67.66,3.34,1.3,5,1.94a17.22,17.22,0,0,0,6.19,1.13c.89,0,1.77,0,2.66,0l18-.12c.19,0,.38,0,.69,0a3.14,3.14,0,0,0-.37-.4c-.55-.4-1.09-.82-1.68-1.17C56.79,78.46,53.89,76.77,51,75c-1.26-.76-2.51-1.55-3.71-2.4a7,7,0,0,1-3.14-5.12q-.11-.94-.18-1.89a14.5,14.5,0,0,0-.73-3.52,4.22,4.22,0,0,0-2.75-2.79,23.54,23.54,0,0,0-7-1.35,3.34,3.34,0,0,0-1.92.53c-1.74,1.06-3.49,2.12-5.26,3.13C23.81,63.06,21.27,64.45,18.71,65.87ZM99.79,18.55l-.2-.09a1.14,1.14,0,0,1-.16.31,29.37,29.37,0,0,1-4.56,4.07c-1.81,1.2-3.64,2.38-5.52,3.47A5.36,5.36,0,0,0,87,28.9c-.78,1.84-1.59,3.66-2.34,5.51a14.14,14.14,0,0,0-1,5.1q-.22,10.65.12,21.3a2.88,2.88,0,0,0,.12.47c.21-.3.37-.49.49-.7,1.47-2.45,2.92-4.91,4.4-7.35,1.23-2,2.49-4,3.76-6a6.71,6.71,0,0,1,4.86-3.16c1.18-.19,2.38-.33,3.56-.52a6,6,0,0,0,5.08-4,41.45,41.45,0,0,0,1.6-5.26,3,3,0,0,0-.25-2.17c-.77-1.46-1.5-2.95-2.31-4.39-1.45-2.57-3-5.11-4.42-7.66C100.32,19.6,100.06,19.07,99.79,18.55ZM36.17,36.08c.08.27.14.5.22.73A29,29,0,0,1,38,45.61c0,1.36.07,2.72.11,4.08a6.41,6.41,0,0,0,1,3.28,23.62,23.62,0,0,0,8.29,8.18c3.46,2,6.9,4,10.37,6,2.34,1.33,4.73,2.59,7.1,3.87a3.48,3.48,0,0,0,.55.18c-.38-.74-.67-1.35-1-1.94-1.93-3.49-3.88-7-5.79-10.48A38.6,38.6,0,0,1,56.9,55.1a6.41,6.41,0,0,1,.16-5.35c.28-.6.62-1.16.88-1.77.38-.89.76-1.79,1.05-2.71A3.66,3.66,0,0,0,58.46,42a24.65,24.65,0,0,0-1.7-2.12,17.48,17.48,0,0,0-3.57-3.13A3.67,3.67,0,0,0,51,36c-.7,0-1.41,0-2.11,0l-10.35,0ZM65.53,18.56c-.06.33-.12.61-.17.9a25.1,25.1,0,0,1-3.48,9.3c-.45.71-.86,1.44-1.31,2.15a4.42,4.42,0,0,0-.68,2.92c0,.36.06.72.11,1.08.2,1.44.43,2.87.61,4.31A18,18,0,0,0,63,46.32c1.76,3,3.47,6,5.25,9,1.55,2.61,3.16,5.19,4.75,7.78.1.15.23.29.44.57,0-.39.09-.61.1-.83.19-3.8.36-7.61.56-11.41q.15-2.89.39-5.77a4.82,4.82,0,0,1,1.39-3.11c.55-.56,1.14-1.1,1.73-1.62s1.27-1,1.88-1.57a5.44,5.44,0,0,0,2-4.71,21.71,21.71,0,0,0-.29-2.29c-.26-1.29-.56-2.57-.89-3.84a3.14,3.14,0,0,0-1.43-1.92c-.64-.39-1.26-.81-1.9-1.18-3.74-2.14-7.5-4.26-11.06-6.68A2,2,0,0,0,65.53,18.56Zm26.25,83.66-.18,0c0,.27-.08.53-.09.8l-.15,5.17c-.09,3.49-.19,7-.27,10.47a7.54,7.54,0,0,1-3,6.07l-.1.09-1.77,1.49a5.31,5.31,0,0,0-2,5.12c.18,1.22.35,2.43.54,3.64,0,.29.14.57.19.86a5.67,5.67,0,0,0,2.8,3.9c4,2.37,7.92,4.79,11.88,7.19.12.07.27.1.43.17.07-.45.14-.82.18-1.21a18.81,18.81,0,0,1,2.75-8c.66-1.08,1.31-2.18,2-3.25a4.68,4.68,0,0,0,.73-3.25c-.34-2.29-.69-4.57-1.06-6.86a11.12,11.12,0,0,0-1.33-3.69c-.49-.85-1-1.71-1.46-2.54l-9.55-15.45C92.12,102.69,92,102.46,91.78,102.22Zm37.47,27.24c-.1-.29-.15-.51-.23-.72a27.5,27.5,0,0,1-1.33-6,32.81,32.81,0,0,1-.06-5.78,5.74,5.74,0,0,0-1.07-3.84c-.93-1.26-1.85-2.53-2.83-3.75a16.14,16.14,0,0,0-4.22-3.81c-1.35-.79-2.69-1.6-4.05-2.37l-12.19-6.92c-1-.54-1.89-1.09-2.84-1.62-.19-.11-.4-.3-.71-.14.13.27.23.52.36.76.6,1.07,1.19,2.14,1.81,3.19,1.73,2.91,3.48,5.8,5.2,8.7a17.89,17.89,0,0,1,1.77,4,6.52,6.52,0,0,1-.14,4.4c-.34.84-.71,1.67-1,2.51s-.61,1.51-.84,2.29a4.21,4.21,0,0,0,.59,3.7,20.71,20.71,0,0,0,4.61,4.87,3.65,3.65,0,0,0,2.35.71c4.77-.07,9.53-.11,14.29-.16ZM56.86,37.87l.12-.1a6.54,6.54,0,0,0-.28-.6c-.73-1.28-1.45-2.56-2.21-3.83-1.33-2.21-2.71-4.39-4-6.61-2.66-4.48-5.3-9-8-13.46a3.31,3.31,0,0,0-.3-.39.7.7,0,0,0-.19,0,40.57,40.57,0,0,0-5.38,3.68,10.79,10.79,0,0,0-3.8,10.48,30.07,30.07,0,0,0,2.5,7c.12.29.35.31.61.31l8.77-.07c1.43,0,2.86-.07,4.28,0a13,13,0,0,1,2.48.36,10.27,10.27,0,0,1,3.77,2ZM37.65,57C37.18,56.52,13,43,12.37,42.85a18.4,18.4,0,0,0-2.72,5.23,10.77,10.77,0,0,0-.5,2.45,12.43,12.43,0,0,0,2.47,8.36,46.28,46.28,0,0,0,5.05,5.51c.51.5.53.52,1.16.17,2.33-1.31,4.67-2.61,7-3.95a54.09,54.09,0,0,1,6.05-3.24,5.86,5.86,0,0,1,1.76-.49c1.13-.08,2.26-.06,3.39,0C36.54,56.85,37.07,56.93,37.65,57Zm71.11,71-.11.13c.06.11.11.24.18.35,1.13,1.87,2.22,3.75,3.38,5.59q5.31,8.48,10.64,16.93l1.06,1.69a37.32,37.32,0,0,0,5.54-3.87A11.17,11.17,0,0,0,132.36,137c-.71-1.79-1.43-3.58-2.11-5.38a.74.74,0,0,0-.81-.54c-1.61,0-3.22,0-4.83,0-2.52,0-5,.17-7.55.18-3.55,0-4.84-.48-7.58-2.75Zm-66,25.44c1.52.78,3,1.53,4.43,2.26,4.37,2.18,10.17.71,13.2-2.15,1.49-1.41,2.85-2.92,4.19-4.46a.72.72,0,0,0,.09-1c-.1-.15-.17-.32-.27-.47l-2.68-4.34q-1.74-2.8-3.46-5.62A9.85,9.85,0,0,1,57,130.29c.17-.79.29-1.58.43-2.37a.7.7,0,0,0-.33.27c-1,1.6-2.05,3.16-3,4.8q-5.52,9.81-11,19.66C43.05,152.84,43,153,42.78,153.37Zm85.11-44.46-.07.2c8.48,4.64,17,9.27,25.4,14a1.63,1.63,0,0,0,.18-.14,26.49,26.49,0,0,0,2.7-5.17,10.18,10.18,0,0,0,.46-5.75,12.61,12.61,0,0,0-3.4-6.4c-1.33-1.29-2.67-2.58-4-3.85-.78-.72-.6-.73-1.55-.18-2.24,1.29-4.44,2.65-6.67,4-1.5.88-3,1.76-4.55,2.58a9.23,9.23,0,0,1-6.18,1.08C129.42,109.08,128.65,109,127.89,108.91ZM108.19,38c.17-.22.31-.37.41-.53,1.29-2.13,2.64-4.23,3.86-6.41,2.83-5.06,5.61-10.16,8.4-15.25.61-1.11,1.2-2.23,1.83-3.41-.08-.05-.15-.11-.23-.15a35.81,35.81,0,0,0-5.11-2.55,10.75,10.75,0,0,0-5.89-.44,12.71,12.71,0,0,0-5.9,2.93,50.43,50.43,0,0,0-4.48,4.65.64.64,0,0,0,0,.86c.94,1.63,1.84,3.28,2.81,4.89,1.08,1.78,2.23,3.53,3.31,5.31a8.48,8.48,0,0,1,1.43,3.64,23.11,23.11,0,0,1,0,3.53C108.52,36,108.33,37,108.19,38ZM30.45,83.37c-.84-.21-27.6.1-28.62.33,0,.2,0,.43,0,.65.07,1.22.07,2.45.25,3.66a12.67,12.67,0,0,0,9,10.76,37,37,0,0,0,5.7,1.27.58.58,0,0,0,.65-.36q1.13-2,2.27-4C21,93.35,22.34,91,23.73,88.6A9.41,9.41,0,0,1,27.52,85C28.48,84.48,29.43,83.94,30.45,83.37ZM83.58,163.9c.16,0,.28,0,.38,0l3.06-.1a12.74,12.74,0,0,0,6.63-2,11.86,11.86,0,0,0,4.87-5.6,28.49,28.49,0,0,0,1.43-6.7.59.59,0,0,0-.35-.66c-.72-.43-1.41-.9-2.14-1.32-2.76-1.57-5.52-3.12-8.28-4.7a11.51,11.51,0,0,1-5.72-7.44,5.32,5.32,0,0,0-.21-.5l-.13,0c0,.24-.06.47-.06.71,0,1.18,0,2.36,0,3.54q.22,12,.48,24C83.53,163.45,83.56,163.67,83.58,163.9Zm-1.37-162c-.49,0-1,0-1.48,0a23.3,23.3,0,0,0-5.06.58,13.35,13.35,0,0,0-6.36,4.11,10.65,10.65,0,0,0-2.71,5c-.35,1.57-.56,3.17-.84,4.75a.74.74,0,0,0,.44.87c1.88,1.09,3.74,2.22,5.63,3.31s3.86,2.18,5.81,3.26a8.13,8.13,0,0,1,3.81,4.52c.23.66.44,1.33.65,2,.07.19.12.38.2.63C82.61,30,82.51,3,82.21,1.93Zm-44,107.18c-8.36,4.81-16.52,9.92-24.73,15,.47.73.85,1.39,1.3,2,.65.9,1.3,1.8,2,2.66a12.12,12.12,0,0,0,7,4.1,7.94,7.94,0,0,0,4.63-.15c2-.74,3.92-1.53,5.88-2.31a3.45,3.45,0,0,0,.47-.24c0-.15,0-.26,0-.37.06-2.8-.07-5.58-.23-8.37-.1-1.63-.09-3.26,0-4.89a7.15,7.15,0,0,1,1.48-4.17C36.72,111.31,37.46,110.2,38.21,109.11ZM32.27,81.94l0-.19c-.35-.15-.7-.31-1.05-.44l-3-1.11a5.59,5.59,0,0,1-2.7-2.09,22.88,22.88,0,0,1-1.41-2.25c-.6-1.11-1.13-2.27-1.69-3.41A11.2,11.2,0,0,0,19.92,69c-.72-.66-1.5-1.25-2.22-1.91a1.11,1.11,0,0,0-1.34-.19c-2.75,1.13-5.51,2.2-8.25,3.35a32.15,32.15,0,0,0-3.23,1.58,4.47,4.47,0,0,0-2.26,3,19.8,19.8,0,0,0-.43,2.4c-.15,1.61-.25,3.21-.36,4.82a1.45,1.45,0,0,0,0,.3c.45,0,.85,0,1.25,0L22,82.09,31.49,82C31.75,82,32,82,32.27,81.94ZM127,58.63l0,.16.33,0c1.32-.2,2.64-.43,4-.58a6.34,6.34,0,0,1,3.82.72c.78.41,1.55.85,2.32,1.3s1.47.88,2.2,1.34a17.34,17.34,0,0,0,7.67,2.37.66.66,0,0,0,.72-.37c.22-.37.47-.72.72-1.07,1.74-2.38,3.5-4.75,5.21-7.15.68-.93,1.29-1.92,1.88-2.91a3.22,3.22,0,0,0,.29-2.76,10.64,10.64,0,0,0-.51-1.47c-.88-1.79-1.81-3.56-2.73-5.33,0-.07-.13-.1-.22-.18l-.94.57q-4.19,2.61-8.38,5.2l-14.37,8.85C128.37,57.71,127.72,58.18,127,58.63Zm36.75,23.46c0-.3,0-.52,0-.74a41.84,41.84,0,0,0-.41-4.19c-.9-4.89-3.86-8.13-8.36-10a23.21,23.21,0,0,0-5.41-1.3c-1.21-.2-.93-.37-1.51.7-1.11,2-2.15,4.14-3.24,6.21-.89,1.7-1.8,3.4-2.74,5.08a6.71,6.71,0,0,1-2.36,2.49,25.54,25.54,0,0,1-4.27,2.24,3.21,3.21,0,0,0-.38.19Zm-11.63-40.7c-.42-.58-.8-1.11-1.19-1.63a26.76,26.76,0,0,0-3.35-3.93c-3.21-2.92-6.91-4-11.13-2.71-1.7.53-3.32,1.33-5,2-.31.13-.29.36-.28.61,0,1.18,0,2.36,0,3.54,0,2.59.14,5.17.15,7.76a32,32,0,0,1-.26,3.38,5.23,5.23,0,0,1-1,2.63c-.89,1.17-1.82,2.32-2.73,3.48l-.25.31a12.35,12.35,0,0,0,2.28-1.11q3.77-2.31,7.51-4.67l14.67-9.25C151.76,41.69,151.93,41.55,152.16,41.39Zm-139,.25a2,2,0,0,0,.26.19L16,43.29q8.34,4.73,16.7,9.42c2,1.13,4.06,2.21,6.1,3.3.2.1.39.28.72.18-.15-.23-.26-.43-.39-.61-.42-.59-.85-1.17-1.27-1.77a8.88,8.88,0,0,1-1.69-4.18c-.12-1.12-.17-2.25-.21-3.38,0-1.3,0-2.59,0-3.88a17.1,17.1,0,0,0-1.37-5.93,1,1,0,0,0-.88-.69C31,35.4,28.28,35,25.56,34.63a32.27,32.27,0,0,0-3.79-.31,5.28,5.28,0,0,0-4.32,1.94c-.17.2-.36.4-.53.62l-3,3.77C13.66,41,13.43,41.29,13.17,41.64Zm25.49,65.6,0-.16c-.8.14-1.6.29-2.4.42a9.18,9.18,0,0,1-4.77-.12,22.3,22.3,0,0,1-3.1-1.53c-1.23-.7-2.4-1.48-3.59-2.22a10.38,10.38,0,0,0-4-1.49c-.78-.11-1.57-.19-2.35-.33a.84.84,0,0,0-1,.41c-1.43,2-2.91,4-4.34,6-1,1.35-1.91,2.71-2.79,4.11a5,5,0,0,0-.44,4.38,11.52,11.52,0,0,0,.47,1.28c.74,1.53,1.5,3,2.25,4.57a4.53,4.53,0,0,0,.26.4l1.31-.79,14.59-8.87c2.7-1.64,5.4-3.26,8.1-4.89C37.47,108,38.06,107.63,38.66,107.24ZM133.89,84.1l0,.16.8.28c.87.32,1.75.61,2.6,1a6.27,6.27,0,0,1,2.8,2.2c.83,1.22,1.59,2.48,2.34,3.75.61,1,1.14,2.12,1.75,3.15a16.53,16.53,0,0,0,4.43,4.62,1.44,1.44,0,0,0,.22-.07c2.77-1.21,5.53-2.41,8.29-3.63,1.18-.52,2.36-1,3.5-1.65a5.23,5.23,0,0,0,2.8-4.1,49.6,49.6,0,0,0,.34-5.84c0-.17,0-.35-.05-.59h-.77c-5.88.11-11.75.21-17.62.35-3.52.08-7,.21-10.55.32C134.47,84,134.18,84.07,133.89,84.1Zm-11,69.14c-.49-.74-.93-1.37-1.34-2l-7.56-12q-3.52-5.61-7-11.24a2.52,2.52,0,0,0-.27-.3,6.54,6.54,0,0,0,.11,1.12c.15,1.37.34,2.74.42,4.12a6.16,6.16,0,0,1-.89,3.51c-.3.5-.6,1-.92,1.51-.74,1.19-1.51,2.36-2.25,3.56a8.57,8.57,0,0,0-1.18,3.17c-.15,1-.25,2-.4,3a.75.75,0,0,0,.41.84c.85.56,1.7,1.12,2.52,1.73,1.6,1.19,3.14,2.46,4.76,3.63,1.13.82,2.32,1.58,3.52,2.3a3.91,3.91,0,0,0,3.6.21c.72-.29,1.43-.58,2.12-.92C120,154.75,121.4,154,122.92,153.24ZM56.87,126.32l-.12-.11-.4.23c-.89.56-1.78,1.09-2.65,1.67a10.09,10.09,0,0,1-6.58,1.72c-1.15-.08-2.31,0-3.46-.09a17.07,17.07,0,0,0-7.08,1.45.61.61,0,0,0-.45.59A69.65,69.65,0,0,1,35.05,139c-.28,1.67-.49,3.36-.64,5.05a4.82,4.82,0,0,0,2.12,4.72c.56.38,1.09.81,1.63,1.22l3.58,2.66C46.75,143.8,51.52,134.9,56.87,126.32ZM123.75,13.07c-.23.44-.4.8-.6,1.16-2.25,4.09-4.48,8.19-6.77,12.26-2.43,4.33-4.92,8.62-7.39,12.93-.07.13-.11.26-.17.39a1.69,1.69,0,0,0,.68-.35c.75-.51,1.49-1,2.23-1.55a11.24,11.24,0,0,1,6.47-2c1.47,0,2.94-.09,4.42-.09a15.87,15.87,0,0,0,6.57-1.51.79.79,0,0,0,.54-.75c.15-1.65.31-3.3.53-4.94.28-2.09.61-4.17.94-6.25a5.15,5.15,0,0,0-1.79-5c-.31-.27-.61-.55-.94-.79q-2.13-1.63-4.28-3.25C124.07,13.25,123.93,13.18,123.75,13.07Zm28.76,111.05c-.15-.09-.26-.17-.38-.23l-17.38-9.6-8.39-4.63c-.18-.1-.38-.17-.57-.26a1.31,1.31,0,0,0,.31.66c.57.73,1.14,1.47,1.74,2.17a7.44,7.44,0,0,1,1.78,5.22c0,1.47-.05,2.94-.09,4.42a19.31,19.31,0,0,0,1.32,7.24.87.87,0,0,0,.89.66c1,.06,1.94.18,2.9.32,2.4.34,4.79.73,7.2,1.06a24.3,24.3,0,0,0,2.57.13,4.67,4.67,0,0,0,3.6-1.63c1.6-1.65,3-3.49,4.39-5.28A1.7,1.7,0,0,0,152.51,124.12ZM43.33,12.22c.14.24.24.44.35.63,1.34,2.26,2.66,4.54,4,6.79Q53,28.57,58.43,37.47c.13.2.28.39.42.58a.92.92,0,0,0,0-.51c-.18-1-.39-2-.54-2.94a8.27,8.27,0,0,1,1.28-6.17c.63-.92,1.22-1.86,1.84-2.78a12.87,12.87,0,0,0,2.07-4.77c.15-.78.24-1.57.4-2.35a1.24,1.24,0,0,0-.56-1.43c-2.23-1.64-4.42-3.34-6.63-5-1-.77-2.07-1.54-3.14-2.26a4.44,4.44,0,0,0-4.71-.36l-5,2.41C43.7,12,43.54,12.09,43.33,12.22ZM83.75,32.28l.17,0c.1-.22.21-.44.3-.67.35-1,.73-1.91,1-2.88a8,8,0,0,1,4-4.86c1.09-.6,2.18-1.2,3.3-1.76a19.08,19.08,0,0,0,6-4.55,1,1,0,0,0,.17-1.28c-.47-.9-1-1.81-1.33-2.75-.8-2-1.55-3.93-2.31-5.89A13.58,13.58,0,0,0,93.5,4.71a5.42,5.42,0,0,0-4.08-2.4c-1.83-.16-3.67-.26-5.5-.38a1.35,1.35,0,0,0-.35.07C83.64,12.11,83.53,22.19,83.75,32.28ZM66.87,148.87c0,.13.09.26.15.39.49,1.12,1,2.22,1.47,3.36.83,2.06,1.61,4.14,2.43,6.2a10.34,10.34,0,0,0,1.66,2.88,4.78,4.78,0,0,0,3.36,1.86c2.06.13,4.12.23,6.18.34a.81.81,0,0,0,.26-.09v-.9c-.09-4.22-.2-8.43-.28-12.65-.1-5.33-.17-10.66-.26-16,0-.16,0-.32-.07-.48l-.14,0-.36.94c-.46,1.23-.89,2.47-1.38,3.69a6.76,6.76,0,0,1-2.73,3.22c-.69.43-1.4.83-2.11,1.23-1.14.62-2.3,1.19-3.42,1.84A13.78,13.78,0,0,0,66.87,148.87Zm34.72-55.36,0,.16c6.49,3.9,13.17,7.47,19.85,11.3-.08-.22-.1-.33-.14-.42a7.84,7.84,0,0,1-.79-3.07c-.07-1.13-.15-2.26-.23-3.4a4.37,4.37,0,0,0-2.85-4c-.29-.12-.59-.22-.89-.32a11,11,0,0,0-3.37-.38c-3.2,0-6.39,0-9.59,0C102.89,93.44,102.24,93.49,101.59,93.51ZM64,72.4l0-.13-19.4-11.1c.06.3.1.52.15.73.11.51.27,1,.33,1.53.16,1.3.29,2.61.41,3.92a5.06,5.06,0,0,0,4,4.83,8.46,8.46,0,0,0,2.28.35c3.83,0,7.66,0,11.49-.07C63.48,72.46,63.72,72.42,64,72.4ZM93.3,101.56l-.18.15c4,6.43,8,12.91,12.09,19.49.11-.57.17-1,.27-1.36a13.65,13.65,0,0,1,1.22-3,20.63,20.63,0,0,0,.91-2,4.49,4.49,0,0,0-1.3-5.29,14,14,0,0,0-2-1.45c-3.36-2-6.75-4.06-10.14-6.09C93.91,101.85,93.6,101.72,93.3,101.56Zm7-29.91.13.1,19.35-11.39a16.8,16.8,0,0,1-5-1.92c-.33-.15-.67-.29-1-.42a5.34,5.34,0,0,0-4.17.09,7.13,7.13,0,0,0-3.16,2.79c-.83,1.25-1.6,2.52-2.36,3.81-1.09,1.86-2.14,3.74-3.19,5.62A14.42,14.42,0,0,0,100.34,71.65ZM61.12,83.37c-1.61-.36-20.92-.18-21.69.11,1.55,1.11,2.36,2.77,3.45,4.2a16.35,16.35,0,0,0,1.32,1.55,4.44,4.44,0,0,0,4.25,1.22A13.88,13.88,0,0,0,53,88.59C55,87.31,57.1,86,59.17,84.7,59.83,84.28,60.47,83.81,61.12,83.37Zm65-1a15.19,15.19,0,0,1-2.39-2.78,15.4,15.4,0,0,0-2.7-3.22,4.64,4.64,0,0,0-3.75-1,10.3,10.3,0,0,0-4.07,1.45c-3,1.8-5.91,3.63-8.86,5.46-.09.06-.14.18-.26.34ZM60.66,45.22a18.15,18.15,0,0,1-1.92,4.19c-.21.37-.4.76-.58,1.15A4.75,4.75,0,0,0,59,56.1,10.37,10.37,0,0,0,61,57.78q2.26,1.52,4.61,2.89c1.87,1.11,3.77,2.16,5.67,3.23a3.14,3.14,0,0,0,.53.23l.08-.09ZM45.55,105.34a13.11,13.11,0,0,1,4.11,1.48c.63.31,1.27.6,1.91.88a4.61,4.61,0,0,0,4-.24,8.24,8.24,0,0,0,3.35-3.19q3-4.9,6-9.81A3.71,3.71,0,0,0,65.1,94C58.5,97.59,52.16,101.52,45.55,105.34Zm15.85,16.6a2.49,2.49,0,0,0,.39-.14,11.38,11.38,0,0,1,4.15-1.23c.85-.1,1.71-.22,2.55-.39a4.27,4.27,0,0,0,3.18-2.61,9.1,9.1,0,0,0,.77-3.16c.1-1.78.17-3.58.22-5.37.06-2.08.09-4.17.13-6.26,0-.23,0-.47,0-.78C72.06,102.76,61.58,121.22,61.4,121.94Zm31-58.73c.13,0,.2,0,.21,0q5.69-9.46,11.35-18.94a.37.37,0,0,0-.18,0,19.89,19.89,0,0,1-5.13,1,17.52,17.52,0,0,0-2.46.48,3.94,3.94,0,0,0-2.61,2.22,7.81,7.81,0,0,0-.82,2.79c-.14,1.87-.29,3.75-.34,5.63C92.33,58.65,92.37,60.94,92.37,63.21Zm-8.85,64.11a1.56,1.56,0,0,0,.24-.26,8.6,8.6,0,0,1,2-2.17c.59-.46,1.2-.91,1.75-1.41a10.73,10.73,0,0,0,1.37-1.41,4.46,4.46,0,0,0,.87-3.78,9.6,9.6,0,0,0-1-2.81c-.68-1.26-1.37-2.51-2.06-3.76q-1.69-3-3.4-6a6.55,6.55,0,0,0-.45-.64C82.71,105.91,83.28,125.68,83.52,127.32Zm-1.4-88.68c-.81.76-1.58,1.52-2.39,2.24-.57.51-1.22.95-1.78,1.47a13.94,13.94,0,0,0-1.63,1.72,3.88,3.88,0,0,0-.67,3.48A16.35,16.35,0,0,0,76.46,50a63,63,0,0,0,5.41,10,3,3,0,0,0,.33.38l.15,0v-.78c0-1.75-.1-3.49-.1-5.23,0-4.11,0-8.21,0-12.31,0-.95,0-1.9,0-2.85A3.61,3.61,0,0,0,82.12,38.64Zm49.61,92.65a60.41,60.41,0,0,1,2.83,8.21c.13-.12.19-.15.22-.21a14.72,14.72,0,0,1,3.07-3.33,27.44,27.44,0,0,1,4.35-2.78,1.93,1.93,0,0,0,.3-.26A69.58,69.58,0,0,0,131.73,131.29Zm1.16-108.77c-1.07,4.72-1.73,9.6-1.47,10.94.85-.34,1.68-.69,2.52-1s1.65-.61,2.5-.88,1.7-.48,2.64-.75a3.08,3.08,0,0,1-.28-.25,14.6,14.6,0,0,1-3.55-4.08c-.45-.79-.91-1.57-1.37-2.35ZM32.67,143.06c.64-2.24,2.13-10,1.7-11a70.82,70.82,0,0,1-7.64,2.68,19,19,0,0,1,3.42,3.83C31,140,31.82,141.53,32.67,143.06ZM149.89,100.4l6,5.78c0-.22.06-.36.07-.51A12.2,12.2,0,0,1,158.22,99c.49-.68.95-1.38,1.42-2.07.11-.16.2-.33.32-.53C158.56,96.42,151.9,99.07,149.89,100.4Zm7.34-34.14a2.07,2.07,0,0,0,0-.27c-.09-.26-.17-.51-.27-.77a13.1,13.1,0,0,1-.85-6.26c.1-1,.11-2.08.15-3.12a3.5,3.5,0,0,0-.1-.53,72.5,72.5,0,0,0-6.67,9A43.48,43.48,0,0,1,157.23,66.26ZM59.67,156.05l.53.1a17,17,0,0,1,6.69,2.34c.67.43,1.32.88,2,1.32a4.8,4.8,0,0,0,.45.22,41.62,41.62,0,0,0-3.59-10A44.16,44.16,0,0,1,59.67,156.05Zm40.4-140.33a49.22,49.22,0,0,1,5.82-5.82c-3.68-.4-6.74-2.16-9.74-4.16A46.4,46.4,0,0,0,100.07,15.72ZM31,26.05c-1.92,3.12-4.93,4.88-8,6.63,3.54.61,7,1.22,10.67,1.51A79.15,79.15,0,0,1,31,26.05ZM9.55,110.45c2.34-3,4.59-5.86,6.54-9-1.34-.32-2.61-.57-3.85-.91s-2.48-.77-3.84-1.2c.11.34.19.55.25.76a24.05,24.05,0,0,1,.65,2.35,23.39,23.39,0,0,1,.26,5C9.53,108.39,9.55,109.34,9.55,110.45ZM109.8,156.57a59.52,59.52,0,0,0-8.4-6.59,31.13,31.13,0,0,1-2,8.13C102.81,156.6,106.27,156.49,109.8,156.57ZM55.88,9.11c1.09,1.31,7.34,6.33,8.41,6.64a25.48,25.48,0,0,1,2.12-7.86,18.39,18.39,0,0,1-5.22,1.2C59.45,9.16,57.71,9.11,55.88,9.11ZM15.7,65.62,10.53,60l-.24-.24h-.06l-.06,0c-.06.42-.09.85-.17,1.27a14.71,14.71,0,0,1-2.45,5.77c-.51.75-1,1.51-1.51,2.26a2.29,2.29,0,0,0-.18.55Z"></path></g></g></svg>