<svg xmlns="http://www.w3.org/2000/svg" viewBox="0 0 177.54 153.75"><defs><style>.cls-1{fill:#5bafa5;}</style></defs><g id="Layer_2" data-name="Layer 2"><g id="Layer_1-2" data-name="Layer 1"><path class="cls-1" d="M76,67.91l27,3.51-3.14,28.71Zm26.48,3.89L76.91,68.48,99.45,99Z"></path><path class="cls-1" d="M75.49,67.09,104,71.72l-4.4,29.73Zm28,5-27-4.39L99.32,100.3Z"></path><path class="cls-1" d="M75,66.22l30.09,5.85-5.78,30.75Zm29.58,6.2L76,66.85l23.13,34.83Z"></path><path class="cls-1" d="M74.6,65.3l31.73,7.17-7.28,31.77Zm31.2,7.5L75.53,66l23.33,37.15Z"></path><path class="cls-1" d="M74.16,64.32l33.42,8.62-8.9,32.76ZM107,73.25,75.07,65l23.46,39.57Z"></path><path class="cls-1" d="M73.72,63.29,108.9,73.46,98.24,107.21Zm34.63,10.47L74.63,64l23.49,42.1Z"></path><path class="cls-1" d="M73.3,62.21l37,11.85L97.7,108.77Zm36.42,12.13L74.19,63l23.44,44.73Z"></path><path class="cls-1" d="M72.89,61.06l38.84,13.67L97.08,110.37ZM111.15,75,73.76,61.83,97.05,109.3Z"></path><path class="cls-1" d="M72.5,59.85l40.75,15.63L96.37,112Zm40.15,15.88L73.35,60.65l23,50.31Z"></path><path class="cls-1" d="M72.13,58.58l42.7,17.74L95.54,113.7Zm42.09,18L73,59.4l22.63,53.27Z"></path><path class="cls-1" d="M71.78,57.25l44.7,20L94.61,115.43Zm44.08,20.2L72.58,58.09l22.1,56.33Z"></path><path class="cls-1" d="M71.45,55.85,118.2,78.28,93.55,117.19l-.15-.42Zm46.12,22.61L72.23,56.71,93.66,116.2Z"></path><path class="cls-1" d="M71.16,54.38l48.83,25L92.36,119Zm48.18,25.19L71.91,55.26,92.5,118Z"></path><path class="cls-1" d="M70.91,52.84l50.94,27.81-.15.2L91,120.82Zm50.28,28L71.63,53.73,91.2,119.87Z"></path><path class="cls-1" d="M70.69,51.23,123.79,82,89.54,122.68Zm52.42,30.89-51.73-30,18.37,69.61Z"></path><path class="cls-1" d="M70.52,49.54l55.27,33.95L87.9,124.56l-.09-.4Zm54.59,34.05L71.18,50.46l17,73.2Z"></path><path class="cls-1" d="M70.4,47.78l57.47,37.33L86.08,126.46Zm56.77,37.4L71,48.72l15.33,76.86Z"></path><path class="cls-1" d="M70.34,46,130,86.87,84.08,128.38Zm59,41-58.37-40,13.44,80.62Z"></path><path class="cls-1" d="M70.34,44l61.89,44.75L81.89,130.3ZM131.51,88.8,70.91,45l11.31,84.46Z"></path><path class="cls-1" d="M70.41,42l64.11,48.81-55,41.36Zm63.38,48.81L71,43l8.89,88.4Z"></path><path class="cls-1" d="M70.56,40l66.31,53.11-60,41.05Zm65.57,53.09L71.07,40.94l6.17,92.39Z"></path><path class="cls-1" d="M70.8,37.82,139.29,95.5,74,136l0-.38Zm67.74,57.62L71.27,38.79l3.13,96.46Z"></path><path class="cls-1" d="M71.12,35.59,141.77,98.1l-70.9,39.79ZM141,98,71.56,36.57l-.25,100.57Z"></path><path class="cls-1" d="M71.56,33.29l72.75,67.6L67.49,139.73v-.38Zm72,67.5L72,34.26,68,139Z"></path><path class="cls-1" d="M72.1,30.9l74.81,73L63.83,141.51Zm74.05,72.86L72.47,31.87,64.32,140.81Z"></path><path class="cls-1" d="M72.76,28.44l76.8,78.67L59.87,143.24l0-.36Zm76,78.51L73.1,29.41,60.39,142.56Z"></path><path class="cls-1" d="M73.56,25.89l78.7,84.67L55.59,144.9Zm77.93,84.48L73.86,26.86,56.14,144.24Z"></path><path class="cls-1" d="M74.5,23.28l80.5,91L51,146.47l.07-.36ZM154.22,114,74.76,24.24,51.56,145.83Z"></path><path class="cls-1" d="M75.6,20.59l82.18,97.6L46,147.94l.08-.36ZM157,117.94,75.83,21.54,46.63,147.32Z"></path><path class="cls-1" d="M76.86,17.83l.27.33,83.46,104.22L40.72,149.28Zm83,104.28L77.06,18.77,41.33,148.7Z"></path><path class="cls-1" d="M78.31,15l85.11,111.86L35,150.5l.11-.35Zm84.33,111.55L78.47,15.94l-42.82,134Z"></path><path class="cls-1" d="M80,12.11l86.31,119.5L28.9,151.55Zm85.53,119.17L80.08,13,29.56,151Z"></path><path class="cls-1" d="M81.8,9.15l87.3,127.52-.36,0L22.36,152.43l.14-.35Zm86.52,127.16L81.89,10.07,23.05,151.91Z"></path><path class="cls-1" d="M83.87,6.15,171.94,142,15.38,153.1Zm87.29,135.5L83.94,7.05,16.09,152.61Z"></path><path class="cls-1" d="M86.19,3.1l88.56,144.63L7.93,153.55ZM174,147.31,86.22,4,8.67,153.09Z"></path><path class="cls-1" d="M88.77,0l88.77,153.75H0Zm88,153.31L88.77.88.76,153.31Z"></path></g></g></svg>