<svg xmlns="http://www.w3.org/2000/svg" id="Layer_1" data-name="Layer 1" viewBox="0 0 657.57 401.81"><defs><style>.cls-1{fill:#8acbc1;}.cls-2,.cls-3,.cls-4{fill:none;stroke-miterlimit:10;stroke-width:2.57px;}.cls-2{stroke:#c65f47;}.cls-3{stroke:#d87e64;}.cls-4{stroke:#eead96;}</style></defs><g id="Layer_2" data-name="Layer 2"><g id="Layer_1-2" data-name="Layer 1-2"><path d="M276.66,348.62c3.35,4.16,3.34,4.78-.15,8.34l1.14,1.56c2,2.72,2,4.85-.56,7.05-1.38,1.2-1.22,2.05-.25,3.35,2.26,3,1.29,6.05-2.26,7.49-3,1.24-3,1.24-1.9,4.37,1.52,4.2.3,7.32-3.75,9.29-1.45.7-1.76,1.41-1.27,3,1,3,.09,5.05-2.68,6.82-2.1,1.32-2.1,1.32-1.27,3.68a6,6,0,0,1-3.06,7.95,6.23,6.23,0,0,1-2.07.51c-2.54.4-2.54.4-2.32,2.94a7.05,7.05,0,0,1-5.95,8A6.6,6.6,0,0,1,249,423c-2.79,0-3.12.44-3,3.3.15,4.69-2.4,7.37-7,7.4h-1.5a2.25,2.25,0,0,0-2.5,2,2.17,2.17,0,0,0,0,.51c-.32,5.62-3.35,8.3-9.06,8-2.84-.16-3.53.32-4.27,3.05a7,7,0,0,1-8.32,5.48l-.33-.07c-.67-.12-1.34-.16-2-.23a2.06,2.06,0,0,0-2.41,1.64.5.5,0,0,0,0,.12c-1.55,5.18-4.88,7.05-10.08,5.62-2.38-.63-2.65-.53-4,1.52-.21.33-.43.67-.65,1a5.87,5.87,0,0,1-8,2.21,3.79,3.79,0,0,1-.34-.2c-2.08-1.08-2.38-1-3.67.93A7.93,7.93,0,0,1,171,468.4l-.24-.13-1.64-.85a5.06,5.06,0,0,0-6.25,1.22c-3.67,3.84-7,4.14-11.35,1a3.27,3.27,0,0,0-4.44-.15c-.37.24-.73.52-1.1.79a6.77,6.77,0,0,1-9.52-1l-.17-.22c-2.27-2.61-4-2.94-7.05-1.39a24,24,0,0,1-2.41,1.13,7.64,7.64,0,0,1-9.77-3.21c-1.48-2.24-1.76-2.31-4-1.22a5.82,5.82,0,0,1-8-1.91l-.21-.36a10.13,10.13,0,0,1-.61-1,2.49,2.49,0,0,0-3.09-1.67,2.66,2.66,0,0,0-.6.26,7.48,7.48,0,0,1-10-3.56,7.56,7.56,0,0,1-.6-1.87,2.11,2.11,0,0,0-2.29-1.92,2.14,2.14,0,0,0-.65.16c-.58.16-1.2.21-1.77.34A7.05,7.05,0,0,1,76.45,448c0-.09,0-.19-.08-.29-1.09-3.27-1.14-3.36-4.77-3.34A7.43,7.43,0,0,1,64,439.66a11.71,11.71,0,0,1-.55-3.52c-.1-1.62-.72-2.31-2.34-2.4H59.3a6.5,6.5,0,0,1-6.91-6.08,7,7,0,0,1,.12-1.71c.25-2-.12-2.5-2.11-2.77a14.94,14.94,0,0,1-1.5-.15,6.91,6.91,0,0,1-6.72-7.1,7.48,7.48,0,0,1,.14-1.24c.34-2.15.3-2.2-1.9-2.52-5-.69-7.28-4.28-5.6-9,.51-1.45.45-2.27-1.11-3a5.62,5.62,0,0,1-3-7.32c.42-1.25.42-1.9-1-2.54-4.46-1.9-5.83-6-3.73-10.57,1-2.17,1-2.15-1.18-2.86q-.51-.15-1-.33c-3.75-1.43-4.81-4.32-2.64-7.7.9-1.39,1.08-2.22-.35-3.53a4.41,4.41,0,0,1-.77-6.18,5.35,5.35,0,0,1,.45-.5c.85-1,1.25-1.76,0-2.8a4,4,0,0,1-.66-5.64,3.8,3.8,0,0,1,.66-.67c1.52-1.57,1.52-1.64-.35-2.69A6.5,6.5,0,0,1,17.44,339a5.38,5.38,0,0,1,6.63-3.28,12.06,12.06,0,0,1,1.76.48,23.42,23.42,0,0,0,11.88,1,19.85,19.85,0,0,1,5.9.5,25.67,25.67,0,0,1,3.65,1.23,10.18,10.18,0,0,0,10.34-2,18,18,0,0,1,4.57-2.7,8.58,8.58,0,0,1,9.32,1.91c1,.93,2,2,3,2.92a2.46,2.46,0,0,0,3.47.38l.05,0c1.2-1,.79-2.15.14-3.32a14.41,14.41,0,0,0-19.63-5.48l-.16.09c-1.16.65-2.25,1.43-3.38,2.15a7.87,7.87,0,0,1-8,.58,17.11,17.11,0,0,0-10.79-1.11,37.36,37.36,0,0,1-8,.23c-1.89,0-3.79-.28-5.68-.47a3.36,3.36,0,0,1-3.3-3.4,3.88,3.88,0,0,1,0-.48,3.62,3.62,0,0,1,3.51-3.75h0a28.45,28.45,0,0,1,3.77.71,45.32,45.32,0,0,0,4.92.63c1.76.13,3.68,0,5.53,0,1.06,0,2.31-.12,2.36-1.3a3.32,3.32,0,0,0-1.21-2.52,6.13,6.13,0,0,0-3.34-.86c-2.83,0-5.67.38-8.51.38a5,5,0,0,1-5.55-4.5c0-.06,0-.11,0-.17a7.3,7.3,0,0,1,3-7.17,5.51,5.51,0,0,1,6.77,1.2c4,4.32,9.06,5.66,14.64,5.94A14.63,14.63,0,0,1,53,319.42c6.54,4.58,13.19,4.1,19.9.51A18.28,18.28,0,0,1,82.05,317,8.55,8.55,0,0,1,88,319.31a13.69,13.69,0,0,1,1.42,1.43c3.79,5,9,6,14.83,5.2a28.4,28.4,0,0,1,6.18-.34,13.83,13.83,0,0,1,9.08,4.94,10.91,10.91,0,0,0,2.25,2.2,2.58,2.58,0,0,0,2.24.3,2.78,2.78,0,0,0,1.11-2.29,8.5,8.5,0,0,0-1.76-3.65,18.65,18.65,0,0,0-18.21-6.26,29.57,29.57,0,0,1-3,.46,10.27,10.27,0,0,1-9.36-4.21,13.31,13.31,0,0,0-13.34-4.79,41.85,41.85,0,0,0-6.79,2.24c-1.76.65-3.52,1.56-5.29,2.25A11.63,11.63,0,0,1,56,315.7a24.64,24.64,0,0,0-12.74-4,13.82,13.82,0,0,1-5.89-2.1,25.76,25.76,0,0,0-7.58-3.36c-3.68-.83-5-3.53-3.86-7a5.47,5.47,0,0,1,6.7-3.86,5.87,5.87,0,0,1,1.25.51,18.28,18.28,0,0,1,3.88,3.35A51,51,0,0,0,42.62,304,10,10,0,0,0,47,305.42a2.17,2.17,0,0,0,2.63-1.58c0-.06,0-.12,0-.18.31-1.43-.59-2.06-1.77-2.69-2.06-1.19-4-2.54-6.06-3.78s-4.07-2.5-6.2-3.52c-3.39-1.76-4.32-4.76-2.21-7.88a4,4,0,0,1,5.4-1.71,4.73,4.73,0,0,1,.56.35c4,3.14,8.81,5.29,11.63,9.93A14.84,14.84,0,0,0,60.19,301a14.64,14.64,0,0,1,7,4.3,20,20,0,0,0,2.88,2.57,2.36,2.36,0,0,0,3.29-.46,2,2,0,0,0,.15-2.86,1.06,1.06,0,0,0-.15-.15c-3.12-3.65-6.55-6.94-11.42-8.09a11.09,11.09,0,0,1-7.43-5.53,16.91,16.91,0,0,0-11.85-8.27c-3.15-.69-4.51-1.89-4.79-4.12a6.94,6.94,0,0,1,3.52-6.88,6.44,6.44,0,0,1,7.14,1.2A17.81,17.81,0,0,1,51.05,276a12,12,0,0,0,11,6.78A7.72,7.72,0,0,1,68,285.9a13.66,13.66,0,0,1,1.25,1.76A10,10,0,0,0,78.82,293c5-.23,8,2.23,9.75,6.64,1,2.57,2.31,5.08,3.52,7.6a5.19,5.19,0,0,0,.58.81c1.17,1.44,2.58,1.9,3.53,1.09,1.3-1.06,1-2.34.37-3.65-1.36-2.94-2.71-5.87-4-8.81a12.66,12.66,0,0,0-12.46-8.53,8,8,0,0,1-6.93-3.37,16.4,16.4,0,0,0-12-7.05,10.46,10.46,0,0,1-4.35-2.27c-2.57-1.76-4.94-3.81-7.56-5.44-3.53-2.17-4-5.75-.87-8.46a4.37,4.37,0,0,1,6.18.16c.09.1.18.19.26.29,1.44,1.63,2.59,3.53,4,5.19a8.81,8.81,0,0,0,2.43,2c1.38.74,2.5-.16,2.47-1.77a9.18,9.18,0,0,1,.39-1.93,6.79,6.79,0,0,1,2,1.09,9.94,9.94,0,0,0,5.57,3.19l3.28.7a7.82,7.82,0,0,1,5.28,4c.52.94,1,1.77,1.5,2.81a9.8,9.8,0,0,0,6.77,5.58,10.12,10.12,0,0,1,8.2,8.25c1,4.42,4.12,7.6,7.54,10.38a2.56,2.56,0,0,0,3.63.15,1.14,1.14,0,0,0,.16-.15,2.42,2.42,0,0,0-.18-3.41l-.14-.11a29.27,29.27,0,0,0-2.45-2.52,15.58,15.58,0,0,1-4.71-8.3,9.61,9.61,0,0,0-7.47-8,11.82,11.82,0,0,1-8.47-6.87,12,12,0,0,0-8.13-6.5c-1.87-.55-3.7-1.24-5.6-1.77a23.59,23.59,0,0,0-4.94-.74A13.56,13.56,0,0,1,57,259.55a5.8,5.8,0,0,1-.26-8.2,6,6,0,0,1,2-1.39,4.58,4.58,0,0,1,5.16.78A15.25,15.25,0,0,1,66,252.91,13,13,0,0,0,72,257a36.13,36.13,0,0,1,4.3,2.18c.91.48,2,1.13,2.69.09a3.47,3.47,0,0,0,0-2.89c-1-2.24-3.22-3.26-5.28-4.3a30.35,30.35,0,0,1-6.12-3.36,5,5,0,0,1,.88-8.41,3.75,3.75,0,0,1,5,.7c.56.62,1,1.4,1.55,2a39.08,39.08,0,0,0,5.29,4.83,11.27,11.27,0,0,1,5,6.24c.19.65.46,1.27.69,1.9a12.18,12.18,0,0,0,8.81,8.26,7.89,7.89,0,0,1,6.19,7.6,12.18,12.18,0,0,0,7,10.28,9.77,9.77,0,0,1,5.16,6.29,32.8,32.8,0,0,0,1.07,3.17,8.26,8.26,0,0,0,6.67,5.62c5.86.51,9.07,3.67,10.46,9.15a11.53,11.53,0,0,0,1.5,3.17,2.19,2.19,0,0,0,2.89,1,2.14,2.14,0,0,0,1.23-2.76l0-.06a93.1,93.1,0,0,0-4.39-10.1,9.06,9.06,0,0,0-7-4.35,9.06,9.06,0,0,1-8.14-7.21,12.55,12.55,0,0,0-6.66-8,9.63,9.63,0,0,1-5.5-8.7,9.71,9.71,0,0,0-7-8.9A12.15,12.15,0,0,1,89.7,252a12.93,12.93,0,0,0-8.11-8.57,13.73,13.73,0,0,1-4.21-2.62,4.89,4.89,0,0,1-.44-6.31c1.76-2.26,4.16-2.17,6.73.23,4.69-4.25,9.87-.27,10.87,4.07a29.38,29.38,0,0,1,.62,5.29,13.67,13.67,0,0,0,5.9,11.12c.41.28.85.72,1.29.74.93,0,2.27.21,2.7-.3a3.53,3.53,0,0,0,.31-2.79,5.06,5.06,0,0,0-1.88-2,8.57,8.57,0,0,1-3.53-7.9,9.72,9.72,0,0,0-4.65-9.44,14,14,0,0,1-1.5-1.06,4.56,4.56,0,0,1-1.76-5,5.12,5.12,0,0,1,4.48-3.74,4.59,4.59,0,0,1,4.74,2.57,16,16,0,0,1,1,2.82,15.49,15.49,0,0,0,6.23,8.82,11.66,11.66,0,0,1,5.28,7.86,10.84,10.84,0,0,0,8,8.9c5.54,1.62,7.25,6,8,11.06.43,2.7.74,5.43,1.36,8.09a11.17,11.17,0,0,0,5.29,7.6c5.65,3.21,7,7.75,5.65,13.59a14.19,14.19,0,0,0,.66,8.54c.49,1.25.89,2.52,1.34,3.79a14.07,14.07,0,0,1,.29,8.25,8.76,8.76,0,0,0-.37,3.52,2.89,2.89,0,0,0,1.77,2,2.82,2.82,0,0,0,2.29-1.43,21,21,0,0,0,.69-14.1c-.39-1.11-.82-2.2-1.26-3.28a12.18,12.18,0,0,1-.54-7.38c1.46-7.05-.42-12.89-6.51-17-3.78-2.54-5.19-6.14-5.72-10.45a48.12,48.12,0,0,0-2-9.12,11.37,11.37,0,0,0-7.4-7.5,10.71,10.71,0,0,1-7.67-8.55,12.85,12.85,0,0,0-3.52-5.8,99.62,99.62,0,0,1-7-8.81,9.41,9.41,0,0,1-1.41-4.78,4.93,4.93,0,0,1,4.39-4.93,4.46,4.46,0,0,1,5.43,3.21c0,.1,0,.21.07.31a5.46,5.46,0,0,0,4.56,4.43c3.1.54,5,3.52,4.83,7.05A16.28,16.28,0,0,0,127.5,243c1.44,2.15,2.75,2.85,4.16,2s1.37-2.5.17-4.55a18.25,18.25,0,0,1-3-9.44,6,6,0,0,1,2.1-4.76,5.44,5.44,0,0,1,2.67-1.1c1.87-.23,2.72-1.12,2.31-3-.21-1-.61-2-.88-3.05a5,5,0,0,1,3.21-6.34c.19-.06.37-.11.56-.15a5.13,5.13,0,0,1,6.29,3.61,4.91,4.91,0,0,1,.18,1.2,20.83,20.83,0,0,1-1.64,10.16,22.58,22.58,0,0,0-1.76,9.11,13.91,13.91,0,0,1-1.6,6.22c-3.11,5.69-2.45,11.28-.16,16.95.47,1.2,1.13,2.4,2.73,2.28s2.59-1.77,2-3.67-1.34-3.67-1.76-5.53a8.12,8.12,0,0,1,1.11-6.59,17.45,17.45,0,0,0,2.75-10.68,12.5,12.5,0,0,1,1.05-5,27.66,27.66,0,0,0,2.07-11.33,13.88,13.88,0,0,1,.16-2.5c.51-3.35,2.76-5,6-4.43a5.08,5.08,0,0,1,4.21,6.58,12.84,12.84,0,0,1-2.36,4.53c-3.94,4.72-4.42,10.36-4.47,16.1,0,1.77,1,2.86,2.24,2.88a2.46,2.46,0,0,0,2.5-2.44,44.44,44.44,0,0,0,.61-6.82,8.25,8.25,0,0,1,3.67-7.29,6.6,6.6,0,0,0,3.19-6.22,9,9,0,0,1,.23-2,3.61,3.61,0,0,1,2.82-3.36,4.59,4.59,0,0,1,4.86,1.44,3.78,3.78,0,0,1,.51,4.66,16,16,0,0,0-2.15,10.76,9.13,9.13,0,0,1-3.91,8.94,13.49,13.49,0,0,0-5.29,7.52,11.9,11.9,0,0,1-5,6.7,12.35,12.35,0,0,0-5.8,12,16.25,16.25,0,0,1-1.39,7.84,5.3,5.3,0,0,0-.6,2.56,3.17,3.17,0,0,0,1.23,2.13,1.93,1.93,0,0,0,2.58-.86v0a18.75,18.75,0,0,0,2.82-9,26.91,26.91,0,0,0,0-3.36,7.06,7.06,0,0,1,3.53-6.91,15.27,15.27,0,0,0,7.05-9.06A10.92,10.92,0,0,1,171.4,244a13.1,13.1,0,0,0,5.5-11.1,40.83,40.83,0,0,1,.67-7.65,13.52,13.52,0,0,1,2.45-4.86,5.76,5.76,0,0,1,10.18,3.2c.3,5-.56,9.59-4.51,13.31a19.47,19.47,0,0,0-4.16,6.17,16.56,16.56,0,0,1-5.9,7.43,13.81,13.81,0,0,0-6.5,12.89,11.69,11.69,0,0,1-3.95,9.73,21.83,21.83,0,0,0-7.05,13,16.84,16.84,0,0,0,1,7.89A27.72,27.72,0,0,1,158,314.54c-.52,1.11-1,2.23-1.45,3.38a9.33,9.33,0,0,0-.48,1.94,2.27,2.27,0,0,0,1.47,2.69,2.09,2.09,0,0,0,2.74-1.12.36.36,0,0,0,0-.09c3-6,5.5-12.09,5-19.14a63.56,63.56,0,0,0-1.76-11.72,11.64,11.64,0,0,1,3.66-11.88c2.72-2.66,5.29-5.43,6.08-9.23a29.59,29.59,0,0,0,.8-6.95,8.61,8.61,0,0,1,4.74-8.25A15.17,15.17,0,0,0,185.6,246a16.65,16.65,0,0,1,3.53-5.52,15.55,15.55,0,0,0,5.29-10.34,11.46,11.46,0,0,1,1-3.53,4.88,4.88,0,0,1,4.76-3.33,5.85,5.85,0,0,1,5.66,3.14,3.29,3.29,0,0,1-.7,4.61l-.22.15c-5.48,3.4-7.38,8.4-7.05,14.55,0,.34-.16.76,0,1,.46.74.94,1.76,1.62,2a2.43,2.43,0,0,0,2.14-1,59,59,0,0,0,1.65-6.44c.25-1.14.34-2.32.65-3.52A6.22,6.22,0,0,1,214,234.37a17.33,17.33,0,0,1,3.85-1.61c1.93-.28,3.53,1.09,4.16,3.21a4.93,4.93,0,0,1-1.76,5.94,21,21,0,0,1-3.79,1.76,11.16,11.16,0,0,0-6.61,5.66,10.13,10.13,0,0,1-10,5.94c-5.87,0-10.27,2.32-12.53,8.21a11.79,11.79,0,0,1-3.87,4.88c-4.23,3.17-5.75,7.69-6.86,12.48a2.22,2.22,0,0,0,1.2,2.9l.07,0a2.34,2.34,0,0,0,3-1.33l0-.09a36.09,36.09,0,0,0,1.6-4,12.48,12.48,0,0,1,4.41-6.18,15.06,15.06,0,0,0,5.42-7.28,7.34,7.34,0,0,1,7.58-5.2h3.68a8.63,8.63,0,0,0,8.5-4.65,19.43,19.43,0,0,1,8-8.22,11.52,11.52,0,0,0,3.86-4.28c2.32-4.07,6.13-3.05,8.21,0s1.44,5.83-2.1,7.42c-.9.41-1.87.7-2.82,1a15.34,15.34,0,0,0-8,6c-.84,1.25-2,2.26-3,3.42a39.64,39.64,0,0,0-4,5.11,12,12,0,0,1-8.69,6.18c-1.26.25-2.52.52-3.78.73a12.47,12.47,0,0,0-10.58,8.81c-2.62,7.91-3.05,8-10.1,11.14a11.58,11.58,0,0,0-6.55,8.81c-.48,2.36.81,4,2.64,3.42a3.28,3.28,0,0,0,1.85-1.91,10.25,10.25,0,0,1,7.3-7.17,12.2,12.2,0,0,0,8.07-8.55c.4-1.26.76-2.57,1.22-3.82a9,9,0,0,1,7.19-6.08c2.18-.42,4.4-.76,6.57-1.23a11.74,11.74,0,0,0,7.88-5.78,31.58,31.58,0,0,1,6.73-8.27,19.27,19.27,0,0,0,3.52-4.88,7.92,7.92,0,0,1,6.88-4.62,5.08,5.08,0,0,1,4.7,7.79,18.65,18.65,0,0,1-3.52,3.9,9.38,9.38,0,0,1-2.73,1.6,21.79,21.79,0,0,0-11.85,10.33,9.29,9.29,0,0,1-5.18,4.07c-1.37.54-3,1-2.78,3,.16,1.34,1.55,1.76,3.93,1.52a9.19,9.19,0,0,0,6.55-3.93c.58-.83,1.11-1.77,1.61-2.56a15,15,0,0,1,6.89-6.4,23.14,23.14,0,0,0,3.28-1.76A15.1,15.1,0,0,0,240.4,261c.26-.92.49-1.76.75-2.75,1-3.33,3.93-4.21,6.65-2a5,5,0,0,1,1.49,6.89,4.92,4.92,0,0,1-1.76,1.66c-2.78,2-5.6,3.87-8.33,5.92a7.77,7.77,0,0,0-2.45,2.68c-.39.81,0,2,0,3,.93,0,2.2.26,2.76-.23,2-1.76,3.72-3.67,5.54-5.55a30.89,30.89,0,0,1,3.12-3.25,3.94,3.94,0,0,1,5.52.65l0,0a3,3,0,0,1,0,4.19,3.08,3.08,0,0,1-.75.55,31.14,31.14,0,0,0-9,7.7A20.92,20.92,0,0,1,240.5,283a47.39,47.39,0,0,0-5.78,4.5,11.37,11.37,0,0,1-10.1,3.68,39.84,39.84,0,0,0-9-.11,11.22,11.22,0,0,0-9.17,6.49c-.55,1-1,2.1-1.5,3.19a8.19,8.19,0,0,1-6,5.06,37.17,37.17,0,0,0-5.69,2.06,8.87,8.87,0,0,0-4.39,4.86,2.49,2.49,0,0,0,.87,3.39,2.18,2.18,0,0,0,3-.77.83.83,0,0,0,.07-.13,11.28,11.28,0,0,1,7.69-4.62,11.46,11.46,0,0,0,9-8.05c2-6.08,6.49-7.23,11.05-6.81,2.38.22,4.78.46,7.17.51A11.2,11.2,0,0,0,238,291a9.56,9.56,0,0,1,4.76-3.83,12.42,12.42,0,0,0,7.22-7.05,11.93,11.93,0,0,1,3.18-4.17,5,5,0,0,1,7.49,1.62c1.76,3,1.2,5.71-1.87,7.31-1.15.6-2.42.94-3.53,1.61a8.6,8.6,0,0,0-3,2.48,3.58,3.58,0,0,0,.19,3c.18.35,1.88.3,2.62,0a12.34,12.34,0,0,0,2.67-2.48c.72-.78,1.28-1.76,2-2.49a4.19,4.19,0,0,1,4.7-1.35,4.84,4.84,0,0,1,3.28,4.45,3.89,3.89,0,0,1-2.13,4.15c-1.57.84-3.31,1.37-4.85,2.27a37.5,37.5,0,0,1-11.7,3.88,113.66,113.66,0,0,1-13.29,1.16,13.16,13.16,0,0,0-9.46,5.11,10.2,10.2,0,0,1-6,3.7,19.11,19.11,0,0,0-9.62,4.8,6.77,6.77,0,0,1-4.15,1.42,13.26,13.26,0,0,0-10.8,5.41c-2.13,2.89-5.29,3.76-8.69,4a19.74,19.74,0,0,0-14.29,7.79c-1.43,1.76-1.59,3.24-.51,4.16s2.59.6,4.16-.85a17.44,17.44,0,0,0,1.55-1.55,14,14,0,0,1,10.57-4.79,13.52,13.52,0,0,0,11.44-5.9,7.17,7.17,0,0,1,6.47-3.21h2.78a6.52,6.52,0,0,0,5.78-2.82,9.81,9.81,0,0,1,7.67-4.2,9,9,0,0,0,7.14-4.08c2.45-3.81,6.18-4.82,10.36-4.46a17.61,17.61,0,0,0,8.05-.9,11.33,11.33,0,0,1,3.78-.64,13.82,13.82,0,0,0,10.45-4.46,12.63,12.63,0,0,1,5.07-2.94,4.36,4.36,0,0,1,5,1.85,6.38,6.38,0,0,1,1.33,6.28,4,4,0,0,1-3.53,2.64c-1.27.14-2.55.19-3.84.3a8.45,8.45,0,0,0-1.5.09c-2.08.28-3.52,1.55-3.19,3s1.68,1.9,3.91,1.28c1.61-.44,3.16-1.13,4.78-1.53a7,7,0,0,1,3.24-.16,2.56,2.56,0,0,1,1.86,3.1,2.63,2.63,0,0,1-.8,1.31,16.88,16.88,0,0,1-1.29,1.09c.53.42,1,.77,1.43,1.16a12.84,12.84,0,0,1,2.2,2.22c2.24,3.33.85,6.61-3,7.46-3.44.75-6.84,1.76-10.3,2.25a32.85,32.85,0,0,1-5.95,0,15.74,15.74,0,0,0-2.82-.26,2.44,2.44,0,0,0-1.77,1.23,2.38,2.38,0,0,0,.8,1.94,7.61,7.61,0,0,0,2.68,1.27A14.64,14.64,0,0,0,269,332.23a18.83,18.83,0,0,1,5.64-1.92,3.73,3.73,0,0,1,3,.65,5.28,5.28,0,0,1,1.76,3.33,3.41,3.41,0,0,1-2.15,2.38c-4.16,1.23-8.4,2.2-12.63,3.17a13.09,13.09,0,0,1-8-1c-1.09-.44-2.19-.88-3.3-1.27a13.1,13.1,0,0,0-10.43.39,8.39,8.39,0,0,1-7.24.21,13.4,13.4,0,0,0-8.34-1.09,30.48,30.48,0,0,0-4.78,1.94,14.91,14.91,0,0,0-2.22,1.5,7.27,7.27,0,0,1-9,.14,24.46,24.46,0,0,0-9.53-4.35,20.89,20.89,0,0,0-13.93,2.45,3.51,3.51,0,0,0-1.58,1.42c-.39.81-.8,2.06-.44,2.66s1.65.85,2.55.89a5.33,5.33,0,0,0,2.36-.78c6.08-3.21,11.81-2.13,17.22,1.52a12.86,12.86,0,0,0,10.07,2.36,11.9,11.9,0,0,0,5.28-2.47,9.09,9.09,0,0,1,11.12-1.5,9.7,9.7,0,0,0,9.87,0A10.26,10.26,0,0,1,254,343a20,20,0,0,0,13.92.8,44.26,44.26,0,0,0,5.16-2.33,14.44,14.44,0,0,1,3.9-1.3,3.6,3.6,0,0,1,4.07,2.94,3.71,3.71,0,0,1-2.35,4.62C278.14,348,277.47,348.3,276.66,348.62ZM162.11,395.09v-1a4.17,4.17,0,0,1,2.68-3.9,3.68,3.68,0,0,1,3.93,2.24,30.05,30.05,0,0,1,1.76,4.18c1.94,5.29,5.41,8.81,11.21,9.55.88.11,1.76.19,2.68.25a11,11,0,0,1,10,7.26c.32.77.69,1.53,1,2.31a16.55,16.55,0,0,0,6.61,8.21,15.8,15.8,0,0,1,5.73,6.63,53.8,53.8,0,0,0,3.12,5.28,2.32,2.32,0,0,0,3.09,1.13l.21-.11c1.14-.61,1.3-2,.51-3.52a55.43,55.43,0,0,1-2.65-5.29,16.73,16.73,0,0,0-6.61-8,14.9,14.9,0,0,1-6-7.44,38.75,38.75,0,0,0-1.64-3.67,13.11,13.11,0,0,0-9.9-7.45,39.28,39.28,0,0,0-4.32-.57,8.18,8.18,0,0,1-7.05-4.24,20.35,20.35,0,0,1-1.89-4.27,12,12,0,0,0-6.45-7.89,11.17,11.17,0,0,1-3.42-3.25,37.83,37.83,0,0,1-1.76-3.41,7.6,7.6,0,0,0-2.06-2.58,2.82,2.82,0,0,0-2.56,0,2.91,2.91,0,0,0-.75,2.47,11.79,11.79,0,0,0,1.32,3,7.38,7.38,0,0,1,.14,7.21,14.9,14.9,0,0,0-1.67,9.88c.95,5.84,3.08,11,8.53,14.1a16.26,16.26,0,0,1,6.5,6.29c.65,1.2,1.43,2.42,3.14,1.77,1.35-.59,1.76-2,1.11-3.92a13.53,13.53,0,0,0-1-2.11,16.37,16.37,0,0,0-6.42-6c-5-3-6.73-7.74-7.15-13.17Zm12-47.58v.21a5.77,5.77,0,0,0-2,.25,3.61,3.61,0,0,0-1.76,1.58,2.92,2.92,0,0,0,.65,2.36,5,5,0,0,0,2.42,1c1.34.32,2.71.53,4.08.8a79.2,79.2,0,0,0,9,1.76,12.75,12.75,0,0,1,8.23,3.52,15.26,15.26,0,0,0,17.89,1.94,11.51,11.51,0,0,1,11.44-.83,21.4,21.4,0,0,0,2.67,1,11.55,11.55,0,0,0,10.58-1.32A8.41,8.41,0,0,1,244,358a20.75,20.75,0,0,1,5.7,2.08,17.18,17.18,0,0,0,10.57,2.18c3.39-.42,6.68-1.23,10.1-.14a2.16,2.16,0,0,0,1.76-1,2.2,2.2,0,0,0-.23-2.08,6.93,6.93,0,0,0-3.2-1.94,16.88,16.88,0,0,0-5.93,0,15,15,0,0,1-10.57-1.34l-1.76-.92a14.61,14.61,0,0,0-14.74,0,9.92,9.92,0,0,1-9.28.64c-.57-.23-1.17-.39-1.77-.6a15.55,15.55,0,0,0-14.09,1.25c-4.53,2.75-8.45,2.24-12.34-1.32a16.89,16.89,0,0,0-11.58-4.48,30.11,30.11,0,0,1-6.52-1.21,60.38,60.38,0,0,1-6-1.64Zm-72.77,31.72a9.31,9.31,0,0,0,8.37-4.11,10.43,10.43,0,0,1,8.39-4.44,17,17,0,0,0,6.54-1.76,62.93,62.93,0,0,0,8.26-5.67,2.69,2.69,0,0,0,.87-2.28,3.18,3.18,0,0,0-2-1.88,7.12,7.12,0,0,0-3.63.76,11.33,11.33,0,0,0-2.77,2.15,13.48,13.48,0,0,1-8.34,3.64,14.68,14.68,0,0,0-11.06,5.8A6.91,6.91,0,0,1,99.37,374c-1.6-.16-3.22-.3-4.84-.32-4.78,0-9.24,1.08-12.18,5.15a16.6,16.6,0,0,1-14,7.21A26.19,26.19,0,0,0,53.13,391,28.08,28.08,0,0,1,47,393.52c-1.5.6-3.1,1-4.57,1.63A2.23,2.23,0,0,0,41,398l0,.05a2.14,2.14,0,0,0,2.72,1.35h0c4.21-.88,8.54-1.66,12.07-4.27a22.3,22.3,0,0,1,13.57-4.4c6.52,0,12.09-2.22,16-7.86,2.5-3.53,6.31-4.6,10.58-4.23,1.78.16,3.55.37,5.33.55Zm147,30.82a11.46,11.46,0,0,0-1-2,18.41,18.41,0,0,0-11.56-8,17.22,17.22,0,0,1-7.58-3.71,13.32,13.32,0,0,0-3.52-2.38,20.15,20.15,0,0,1-9.29-7.9,12.68,12.68,0,0,0-7.36-4.92c-3.67-1.05-7.32-.51-11-.21a7.84,7.84,0,0,1-6.19-1.51,23.93,23.93,0,0,0-11.42-5.29,9.88,9.88,0,0,1-4.56-2.82,25.41,25.41,0,0,1-3.26-5,9.43,9.43,0,0,0-5.4-4.73A2.51,2.51,0,0,0,163,363c-.65,1.29.16,2.07,1,2.88a25.5,25.5,0,0,1,3.08,3.24c1,1.29,1.66,2.77,2.51,4.16a12,12,0,0,0,9.23,5.94,12.76,12.76,0,0,1,7.4,3c3.9,3.52,8.43,4.19,13.43,3.42,5.73-.9,10.58.51,13.59,5.92a14.23,14.23,0,0,0,5.74,5,74.13,74.13,0,0,1,7,4.53,16.35,16.35,0,0,0,7.21,3.37,15.58,15.58,0,0,1,9.45,5.28A13.47,13.47,0,0,0,245.1,412c1.36,1,3.14.09,3.17-2ZM150,382a27.56,27.56,0,0,0-2.09-10.57c-.69-1.77-1.92-2.31-3.26-1.77a2.62,2.62,0,0,0-1.5,3.4.69.69,0,0,0,0,.13c.39,1.51.92,3,1.34,4.49,1.62,5.91.39,10.29-5.29,13a10.58,10.58,0,0,0-5.76,5.82,37,37,0,0,0-1.87,7.75,12.83,12.83,0,0,1-4.56,8.64,18.76,18.76,0,0,1-9.59,4.58,8.81,8.81,0,0,0-7.67,6.63c-1,3.4-1.76,6.87-2.69,10.32a1.31,1.31,0,0,0,0,.83c.42.72.77,1.76,1.43,2a2.75,2.75,0,0,0,2.23-.55,4.75,4.75,0,0,0,1.4-2.24c.72-2.55,1.21-5.28,2-7.75a10,10,0,0,1,1.92-3.42,2.34,2.34,0,0,1,3.15-.19c1.11.75.92,1.76.44,2.83-.35.76-.74,1.5-1.11,2.24a2.31,2.31,0,0,0,.59,3.19l.08.05a2.26,2.26,0,0,0,3.13-.63v0a6.5,6.5,0,0,0,1.23-1.95,43.27,43.27,0,0,0,1.77-5.41,9.27,9.27,0,0,1,3.87-5.87c5-3.28,6.91-8.07,7.35-13.77a10.41,10.41,0,0,1,6-9.23A12.79,12.79,0,0,0,150,382ZM80.88,439.49a8.25,8.25,0,0,0,1.77-1.77,67.7,67.7,0,0,0,3.61-7.17,14.55,14.55,0,0,0,1.25-5,21.91,21.91,0,0,1,8.23-16.05,24.7,24.7,0,0,0,7.05-9.55c1.76-4.43,4-8.18,8.65-10.15a2.21,2.21,0,0,0,1.6-2.68,2,2,0,0,0-.12-.34,2.37,2.37,0,0,0-3.15-1.17l-.16.08a26.26,26.26,0,0,0-4.18,2.08c-3.63,2.17-5.28,5.78-6.76,9.5a17,17,0,0,1-6.24,8.1,14.18,14.18,0,0,0-5.29,6.44,10.59,10.59,0,0,1-8.26,6.94c-4.48.95-7.39,4.2-9.47,8.16a2.26,2.26,0,0,0,3.62,2.7l.12-.18c1-1.13,1.76-2.47,2.82-3.52a10.43,10.43,0,0,1,3.33-2.4,2.3,2.3,0,0,1,3.22,2.8A21,21,0,0,1,81,430.89c-.77,1.76-1.76,3.52-2.57,5.28a2.37,2.37,0,0,0,1.17,3.13A2.46,2.46,0,0,0,80.88,439.49Zm71.84-25a25.19,25.19,0,0,0-3-10.77c-1-1.76-2.36-2.31-3.7-1.62s-1.66,2-.73,3.79c3.76,7.24,2.66,14.09-1.93,20.42a17.64,17.64,0,0,0-2.67,16.51,22.44,22.44,0,0,1,.59,12.34,6.46,6.46,0,0,0-.13,2.66,2.32,2.32,0,0,0,1.24,1.57,2.78,2.78,0,0,0,2.11-.46,2.94,2.94,0,0,0,1-1.76,39.13,39.13,0,0,0,1-7.91,68.84,68.84,0,0,0-1.55-9,14,14,0,0,1,1-9.15,2.08,2.08,0,0,1,2.61-1.32l.13.05c1.32.51,1.32,1.76,1,2.84-.18.74-.74,1.51-.64,2.2a3.7,3.7,0,0,0,1.25,2.43c.55.32,1.77-.14,2.45-.65a4.63,4.63,0,0,0,1.29-2.27,8.83,8.83,0,0,0-1-7.72,9.34,9.34,0,0,1-1.27-7.67A28.3,28.3,0,0,0,152.72,414.5ZM43.15,354.66v-.1H37.87a18.07,18.07,0,0,0-9.15,2.92c-2,1.24-2.64,2.65-1.89,3.92s2.33,1.39,4.32.19A16.43,16.43,0,0,1,40,359.3c3.12,0,6.26.12,9.38,0,5.29-.3,10.24-1.46,14.1-5.59a10.84,10.84,0,0,1,4.47-2.45,11.49,11.49,0,0,1,9.36,1.25,14.21,14.21,0,0,0,8.64,2.14c2.08-.23,4.21-.71,5.28-2.77a3.26,3.26,0,0,0,0-2.86,2.85,2.85,0,0,0-2.66-.44c-3.22,1.66-6.06.76-9.11-.58a24.25,24.25,0,0,0-7.33-2,15.34,15.34,0,0,0-11.82,4.21,15.24,15.24,0,0,1-8.55,3.89C48.74,354.28,45.94,354.45,43.15,354.66ZM194.4,449a4.77,4.77,0,0,0-.16-1.5,24,24,0,0,0-4.9-10.87,11.48,11.48,0,0,1-2.19-3.88A3.18,3.18,0,0,1,188,430a3.22,3.22,0,0,1,2.87-.09,8,8,0,0,1,2.87,2.66c1.41,2.21,2.57,4.57,3.81,6.88.86,1.64,1.62,3.31,2.48,4.95a2.1,2.1,0,0,0,2.67,1.29l.1,0a2.32,2.32,0,0,0,1.34-2.77,3.71,3.71,0,0,0-.3-1.13c-2-4.07-3.83-8.19-6-12.14a11.12,11.12,0,0,0-6.59-5.16,6.68,6.68,0,0,0-8.55,4,1.59,1.59,0,0,0-.07.2,9.53,9.53,0,0,0,1.76,9.62,27,27,0,0,1,5.94,11.48,2,2,0,0,0,2.17,1.83,2.32,2.32,0,0,0,.38-.07c1.22-.25,1.54-1.32,1.47-2.52Zm-68.12-99.87c1.77-.23,2.91-.9,3.12-2.26a2.51,2.51,0,0,0-2-2.89,14.27,14.27,0,0,0-3.42-.78,11.09,11.09,0,0,1-9-5.28,11.44,11.44,0,0,0-7.53-5.29,20.06,20.06,0,0,0-9.27.53,13.57,13.57,0,0,1-10.57-.94c-.44-.24-1-.59-1.41-.47a5.44,5.44,0,0,0-2.73,1.41,2.75,2.75,0,0,0,.53,2.68,11.81,11.81,0,0,0,3.7,2.18,17.73,17.73,0,0,0,11.51.18c6.45-1.76,8.61-.92,12.74,4.23a12.63,12.63,0,0,0,4.49,3.88A83.87,83.87,0,0,0,126.28,349.17Zm35.11,68c-.92.79-1.89,1.23-2.1,1.92a2.78,2.78,0,0,0,.48,2.38,12.77,12.77,0,0,1,3.52,7.44,19.08,19.08,0,0,0,7.47,13c3.53,2.61,7.23,4.85,9.63,8.69a2.38,2.38,0,0,0,2.27.53,2.61,2.61,0,0,0,1.11-2.14,5.79,5.79,0,0,0-1.18-3.22c-1.89-2.1-4-4-6.08-5.89-1.48-1.36-3.19-2.47-4.55-3.91a16,16,0,0,1-4.17-9.15,12.38,12.38,0,0,0-2.84-7,26.91,26.91,0,0,0-3.63-2.64ZM38,390.16c.66-.16.94-.2,1.2-.28,2.79-.92,5.62-1.77,8.37-2.84a8.34,8.34,0,0,0,3.14-2,13.26,13.26,0,0,1,11-4.25,17.44,17.44,0,0,0,9.92-2.8c2.43-1.45,3.12-2.36,2.56-3.52-.74-1.56-2.42-1.77-4.85-.66A21.38,21.38,0,0,1,59.49,376a14.4,14.4,0,0,0-9.89,3.53,24.23,24.23,0,0,1-9.13,4.7,11.08,11.08,0,0,0-3.89,2.14,2.63,2.63,0,0,0-.44,2.36c.26.61,1.28,1,1.76,1.41ZM138.72,329c-.15-.65-.24-1.32-.45-1.94-2.72-8-7.49-13.88-16.34-15.45a10.89,10.89,0,0,1-6.19-3.53,4.88,4.88,0,0,0-1.76-1.25,2.09,2.09,0,0,0-2.79,1,1.91,1.91,0,0,0-.2.77,4.17,4.17,0,0,0,.75,2.29c2.33,3.41,5.82,4.8,9.7,5.64a14.37,14.37,0,0,1,11.17,10.33,21.22,21.22,0,0,0,1.57,3.67,2.25,2.25,0,0,0,2.87,1.09A2.47,2.47,0,0,0,138.72,329Zm90.61-2.61a18.17,18.17,0,0,0-11.55,2.79,10.53,10.53,0,0,0-2.76,3,2.18,2.18,0,0,0,.23,2.08,3.26,3.26,0,0,0,2.22.65,3.14,3.14,0,0,0,1.6-.81,13.24,13.24,0,0,1,10.05-2.8c1.09.1,2.22,0,3.33.1a8,8,0,0,0,6.82-3.26c2.34-2.9,3.65-3.13,7-1.44a2.73,2.73,0,0,0,3.73-.64c.73-1.19.25-2.43-1.34-3.52a9.25,9.25,0,0,0-11.72,1C234.56,325.66,232,327.1,229.33,326.41ZM85.64,367.81c3.84,0,6.7-.63,8.92-2.94,1.22-1.27,1.43-2.59.55-3.53a2.4,2.4,0,0,0-3.37-.4l-.16.14a9.54,9.54,0,0,1-8.93,1,10.6,10.6,0,0,0-7.72,0,33.32,33.32,0,0,1-10.33,2.26,9.32,9.32,0,0,0-3.81,1.5,2.34,2.34,0,0,0-.91,3.18l0,.06c.73,1.34,2,1.2,3.25.83s3-.81,4.51-1.15c2.43-.54,4.91-.9,7.31-1.6a11.2,11.2,0,0,1,6.56-.23A41,41,0,0,0,85.64,367.81ZM61.29,421.33a8.11,8.11,0,0,0,1.94-1.51,44.13,44.13,0,0,0,3.87-6.06,14.82,14.82,0,0,1,11.63-8.53A12.75,12.75,0,0,0,87,399.94c.7-.94,1.28-2.2.23-3a5.47,5.47,0,0,0-3.07-.3c-.37,0-.79.41-1.11.71a18.75,18.75,0,0,1-8,4,21,21,0,0,0-6.71,3.21c-4.51,3.53-6.36,9.22-9.5,13.85C58,419.64,59.31,421.28,61.29,421.33Zm172.09-35.16v-.12a15.72,15.72,0,0,0,2.17,0c1.14-.16,2.18-.83,2.06-2a3.92,3.92,0,0,0-1.52-2.31,3.83,3.83,0,0,0-2.39-.49,10.37,10.37,0,0,1-9.66-4.86c-3.52-4.69-8.71-6.12-14.2-6.75a2.07,2.07,0,0,0-2.46,1.61l0,.15a2.15,2.15,0,0,0,1.55,2.47,19,19,0,0,0,2.87.88,14.37,14.37,0,0,1,9.68,6.32,10.59,10.59,0,0,0,7.65,4.64C230.49,385.91,232,386,233.38,386.17Zm-130,31.45v-1.68c-.1-1.32-.54-2.45-2.06-2.66a2.58,2.58,0,0,0-2.59,2.36,5.87,5.87,0,0,0-.09,1.18,19.53,19.53,0,0,1-5.81,15,17.61,17.61,0,0,0-4.94,9.71c-.32,1.85.42,3.07,1.76,3.3s2.21-.48,2.66-2.4a12.34,12.34,0,0,1,3.76-6.79C101.61,430.85,103.16,424.54,103.37,417.62Zm9.06-159.48c-.6.53-1.66,1-1.9,1.76a3.1,3.1,0,0,0,.91,2.38A8.51,8.51,0,0,0,114,263.8a9.58,9.58,0,0,1,5.5,7.5,27.39,27.39,0,0,0,1.35,5.86,52.23,52.23,0,0,0,3.86,6.94,1.78,1.78,0,0,0,2.46.45l.21-.17a4.57,4.57,0,0,0,.91-2.59,3.85,3.85,0,0,0-.81-1.76A28.57,28.57,0,0,1,124,270a15.69,15.69,0,0,0-1.77-5.28C120.2,261,116.68,259.37,112.43,258.14ZM215.25,402.39c-.39.3-1.41.7-1.57,1.34a2.9,2.9,0,0,0,.72,2.45,18.79,18.79,0,0,1,4.95,6.24,47.62,47.62,0,0,0,2.65,4.86,21.33,21.33,0,0,0,8.26,7.16,2.15,2.15,0,0,0,3-.44l0,0a2.25,2.25,0,0,0-.41-3,12.37,12.37,0,0,0-2.06-1.76,18.2,18.2,0,0,1-6.63-8,32.76,32.76,0,0,0-2.41-4.58,8.52,8.52,0,0,0-6.52-4.11Zm-98.11-10.66a2.37,2.37,0,0,0,2,2.69,2.34,2.34,0,0,0,1.51-.28c4.74-2.11,8.94-4.81,10.7-10.15a22.34,22.34,0,0,1,2.43-4.74c1-1.57,1.16-2.73.23-3.53a2.59,2.59,0,0,0-3.66.14l-.11.13a20.47,20.47,0,0,0-3.33,5.5,12.38,12.38,0,0,1-6.35,7.21,11.83,11.83,0,0,0-2.57,1.76A4.38,4.38,0,0,0,117.14,391.73Zm6,62.7h.27v1a2.07,2.07,0,0,0,1.76,2.32,2.17,2.17,0,0,0,2.45-1.58,11.76,11.76,0,0,0,.54-1.93c1.08-4.19,2.17-8.4,3.18-12.61a55.62,55.62,0,0,0,1.05-6.26,2.25,2.25,0,0,0-1.72-2.69h0c-1.44-.33-2.17.57-2.62,1.77-.23.61-.39,1.26-.57,1.92-.65,2.59-1.34,5.18-2,7.77C124.73,447.59,124,451,123.18,454.43Zm120.49-78.21a15.93,15.93,0,0,0,2.84-.23,34.75,34.75,0,0,0,5.15-1.76,2,2,0,0,0,.93-2.69l0-.06a2.31,2.31,0,0,0-2.77-1.34,6.3,6.3,0,0,0-1.13.31,13.86,13.86,0,0,1-11.81-.72,4,4,0,0,0-2-.67,3.39,3.39,0,0,0-2.3,1.13,2.7,2.7,0,0,0,.39,2.34,6.62,6.62,0,0,0,2.36,1.77A17.46,17.46,0,0,0,243.67,376.22Zm-62.08-62.76a60.91,60.91,0,0,0-10,3.82c-1.76,1.08-3,3.53-4.27,5.4a2.09,2.09,0,0,0,.41,2.94,1.53,1.53,0,0,0,.25.16,2.38,2.38,0,0,0,3.17-.58,4.68,4.68,0,0,0,.63-.78,8.2,8.2,0,0,1,7.05-4.51,9.33,9.33,0,0,0,4.23-1.76,3.13,3.13,0,0,0,.69-2.77C183.66,314.66,182.52,314.2,181.59,313.46ZM41.34,365.93A14.07,14.07,0,0,0,33.05,368a6.59,6.59,0,0,0-1.76,1.77,1.76,1.76,0,0,0,.16,2.48,1.73,1.73,0,0,0,1.43.42,3.32,3.32,0,0,0,1.76-.44,10.61,10.61,0,0,1,8.11-.9,41.05,41.05,0,0,0,4.39,1,2.34,2.34,0,0,0,1.48-4.45l-.32-.08C45.66,367,42.94,366.33,41.34,365.93Zm205.19,15.33-.3-.3c-.76.6-1.89,1.07-2.19,1.87a2.72,2.72,0,0,0,.94,2.34,12.63,12.63,0,0,0,3.86,2.27c3.52,1.22,7,2.22,10.57,3.28,1,.3,2.24.23,2.57-.88a3.27,3.27,0,0,0-.52-2.66,6.67,6.67,0,0,0-2.79-1.76c-3.52-1.34-7.05-2.59-10.57-3.86A10.6,10.6,0,0,0,246.53,381.26Zm-48.2,10.82a7.25,7.25,0,0,0-2.45.32c-.76.37-1.76,1.14-1.76,1.76s.84,1.5,1.44,2.15a2,2,0,0,0,1.23.44,9.78,9.78,0,0,1,7.74,4,2.66,2.66,0,0,0,2.5.46,2.89,2.89,0,0,0,1.36-2.19,4.68,4.68,0,0,0-1.13-2.68A11.11,11.11,0,0,0,198.33,392.08Zm-88.61-38.77a11.61,11.61,0,0,0-7,2.46,14.35,14.35,0,0,0-2.82,3.35,2.17,2.17,0,0,0,.61,3,2.46,2.46,0,0,0,3.23-.16,3.91,3.91,0,0,0,.93-.93,6,6,0,0,1,5.64-2.63,3.56,3.56,0,0,0,1.77-.18c.75-.42,1.76-1.11,1.86-1.76a3.17,3.17,0,0,0-1.34-2.36,8.64,8.64,0,0,0-2.83-.69Zm145.11,47.86c.95-.79,1.88-1.27,2.27-2a1.88,1.88,0,0,0-.87-2.52l-.26-.1c-3.63-1.54-7.29-3-11-4.36a2.24,2.24,0,0,0-2.8,1.27,1.76,1.76,0,0,0,.75,2.38,2.71,2.71,0,0,0,.3.13c3.76,1.9,7.58,3.54,11.62,5.32ZM37.2,343a20.87,20.87,0,0,0-9,2.53c-2.06,1.18-2.76,2.48-2,3.84s2.41,1.35,4.33.21a11.67,11.67,0,0,1,6.68-1.76,5.69,5.69,0,0,0,2.7-.48,2.59,2.59,0,0,0,1.2-1.94,2.72,2.72,0,0,0-1.38-1.76,8,8,0,0,0-2.55-.58Zm221.26-19.26a13.18,13.18,0,0,0,9.25-3.13,2.8,2.8,0,0,0,.72-2.45,1.94,1.94,0,0,0-2.57-1l-.1.05c-.64.23-1.22.58-1.77.79a19.54,19.54,0,0,1-4.1,1.29c-1.41.15-2.88-.34-4.3-.22a1.84,1.84,0,0,0-1,3.53A21.31,21.31,0,0,0,258.46,323.75ZM124.52,402.32c-.37-.48-.72-1.45-1.25-1.57a3.54,3.54,0,0,0-2.77.37,58.45,58.45,0,0,0-5.28,6.47,2,2,0,0,0,.64,2.69,1.9,1.9,0,0,0,1.12.29,3.53,3.53,0,0,0,2.41-.83,70,70,0,0,0,4.67-6,5,5,0,0,0,.58-1.39Zm59.39-41.22-.16.4c-2,0-3.24.81-3.33,2.28s1.13,2.16,3,2.55a13.24,13.24,0,0,1,3.79,1.46,3,3,0,0,0,4-.38,2.46,2.46,0,0,0-.53-3.43,2.51,2.51,0,0,0-.45-.26A64.44,64.44,0,0,0,184,361.1Zm-66.7,77.31a5.68,5.68,0,0,0-1.64,1.32,63.82,63.82,0,0,0-3.28,5.59,2.39,2.39,0,0,0,.56,3.31,2.16,2.16,0,0,0,3-.53l.11-.17a53.51,53.51,0,0,0,3.66-7.05C120.17,439.66,119.07,438.45,117.21,438.41ZM52.26,411.25a7.24,7.24,0,0,0,2-1.09c1.45-1.39,2.78-2.87,4.12-4.37a2,2,0,0,0,.32-2.73,2,2,0,0,0-2.82-.51l-.17.14a42.81,42.81,0,0,0-5.52,5.5C49.06,409.46,50.18,411.22,52.26,411.25ZM200,294c-.18-.23-.48-1.1-1-1.25a2.63,2.63,0,0,0-2.27.21,34.61,34.61,0,0,0-4.22,4.91,2.46,2.46,0,0,0,.2,2.28,2.76,2.76,0,0,0,2.18.65c2-.35,5-4.27,5.06-6.8ZM159.5,456.72h.16a23.46,23.46,0,0,0-1.06-4.51,2.76,2.76,0,0,0-2.18-1.48,2.81,2.81,0,0,0-1.76,2.06,23.36,23.36,0,0,0,.37,5.47c.21,1.23.9,2.43,2.45,2.2s1.93-1.34,1.93-2.72a4.4,4.4,0,0,0,.06-1Zm107.67-84.59a5.6,5.6,0,0,0-.59-1.32c-1.16-1.59-6.36-2.93-8.05-2a2.34,2.34,0,0,0-1.18,1.62,2,2,0,0,0,1.06,1.64,49.81,49.81,0,0,0,6.53,1.92c1.1.23,2-.35,2.19-1.92ZM224.5,433.81c1.76,0,2.61-1.18,2.06-2.5a8.23,8.23,0,0,0-5.29-5.08,2.43,2.43,0,0,0-2.11.78,2.36,2.36,0,0,0,0,2.22,42.91,42.91,0,0,0,4.23,4.19,2.58,2.58,0,0,0,1.07.37ZM213.92,412a1.39,1.39,0,0,0-.37-.84,50.64,50.64,0,0,0-4.79-4.11,2.35,2.35,0,0,0-2.24.16,2.47,2.47,0,0,0-.65,2.15,7.33,7.33,0,0,0,5.15,4.81,2.23,2.23,0,0,0,2.71-1.63,2.1,2.1,0,0,0,.07-.56ZM172.4,452.14a6.17,6.17,0,0,0-1.42,1.59,5,5,0,0,0,1.62,4.95,2.85,2.85,0,0,0,2.29,0,2.53,2.53,0,0,0,.88-3.39C175.24,453.87,174.82,452.32,172.4,452.14ZM89.27,390.32c2.14,0,4.46-2,4.43-3.69,0-1.42-.92-1.92-2.21-1.92-1.92,0-4.33,2.1-4.24,3.76a1.89,1.89,0,0,0,2,1.85Zm25.45-10.81c2.56,0,4.64-1.64,4.69-3.33a2,2,0,0,0-1.84-2.09h-.24c-1.94,0-4.32,1.9-4.32,3.52a1.77,1.77,0,0,0,1.62,1.9h.09ZM184.18,387c-1.45,0-2.4.67-2.45,1.88s2.23,3.53,4.05,3.53a2.12,2.12,0,0,0,2.38-1.81c0-.06,0-.11,0-.17.14-1.57-1.89-3.33-4-3.43Zm-86.09-40.1a4,4,0,0,0,4.12-3.15,2.2,2.2,0,0,0-2.43-2.15,4.05,4.05,0,0,0-3.93,3.22C95.78,346.1,96.64,346.89,98.09,346.89Zm10.76,54.32c-2.39,0-4.58,1.76-4.67,3.35a2,2,0,0,0,2.28,2.06,4.23,4.23,0,0,0,4-3.53,1.76,1.76,0,0,0-1.63-1.88h0Zm82,14.48a4.06,4.06,0,0,0-4-3.33c-1.27,0-2.19.55-2.27,1.91-.13,1.64,1.9,3.36,3.87,3.4,1.43,0,2.33-.72,2.37-2Zm7.33-46.43c-1.6,0-2.57.77-2.55,2a3.85,3.85,0,0,0,3.72,3c1.62,0,2.68-.82,2.68-2.13,0-1.64-1.75-2.92-3.86-2.92Zm4.2-24a2.2,2.2,0,0,0-2.36,2v.05a3.7,3.7,0,0,0,3.65,3.2,2.35,2.35,0,0,0,2.62-2c0-1.42-2.17-3.26-3.93-3.27Zm22,18.38c-1.45,0-2.33.7-2.33,2a3.85,3.85,0,0,0,3.77,3.1c1.43,0,2.31-.72,2.31-2a3.71,3.71,0,0,0-3.77-3.06Zm-74.8-113.36c2.05,0,3.35-.95,3.33-2.46s-1.11-2.23-2.92-2.28a2.8,2.8,0,0,0-3.11,2.46s0,.05,0,.08C146.88,249.45,147.87,250.24,149.63,250.26Zm83.47,157a2.22,2.22,0,0,0-2.44,2,1.21,1.21,0,0,0,0,.19c0,1.3,1.76,2.71,3.52,2.76a2.1,2.1,0,0,0,2.4-1.75c0-.07,0-.15,0-.22A3.53,3.53,0,0,0,233.1,407.27ZM78.7,296a2.9,2.9,0,0,0-3.17,2.59v.07a2.71,2.71,0,0,0,2.89,2.21,2.93,2.93,0,0,0,3-2.68C81.45,296.91,80.29,296,78.7,296Zm130,33a2.54,2.54,0,0,0,2.77-2.29h0a3.29,3.29,0,0,0-3.37-2.61,2.32,2.32,0,0,0-2.53,2.1v.17a3,3,0,0,0,3,2.63ZM60.93,285.46a2.57,2.57,0,0,0-2.88,2.25,1.23,1.23,0,0,0,0,.27,2.44,2.44,0,0,0,2.37,2.49h.2a3.08,3.08,0,0,0,3.08-2.71C63.68,286.34,62.61,285.47,60.93,285.46Zm123.19-56c1.77,0,2.79-.86,2.79-2.2a2.79,2.79,0,0,0-3-2.56h-.1a2.43,2.43,0,0,0-2.76,2.05c0,.11,0,.23,0,.34A2.8,2.8,0,0,0,184.12,229.41ZM75.79,408.72c-1.34,0-3.29,1.44-3.26,2.83s1,1.91,2.22,2c1.76,0,3.79-1.46,3.7-2.91S77.34,408.8,75.79,408.72ZM183.56,304.93c1.76,0,3.05-1,3.05-2.38s-1.24-2.38-3-2.36a2.4,2.4,0,1,0-.71,4.74,2.12,2.12,0,0,0,.71,0ZM165.94,232.8c1.76,0,2.83-.78,2.85-2.1a2.75,2.75,0,0,0-2.85-2.63,2.79,2.79,0,0,0-3,2.51C162.94,231.85,164.21,232.78,165.94,232.8Zm65.87,46.49a2.62,2.62,0,0,0-2.79-2.45h0a2.73,2.73,0,0,0-2.85,2.47,2.56,2.56,0,0,0,2.76,2.3,2.61,2.61,0,0,0,2.91-2.27Zm33.31,72.36c.64-.21,1.57-.25,2-.74a2.81,2.81,0,0,0,.79-2.24c-.46-1.43-1.87-1.6-3.19-1.5s-2.63.41-2.7,1.94a3.28,3.28,0,0,0,1.17,2.08C263.59,351.54,264.36,351.54,265.12,351.65Zm-196.57,2c-1.76,0-3.53,1.43-3.53,2.89s1.1,1.76,2.31,1.76c2,0,3.53-1.2,3.53-2.75S69.89,353.64,68.55,353.66Zm148.71-50.07c1.76,0,2.89-.9,2.87-2.34s-1.22-2.35-2.91-2.36a2.61,2.61,0,0,0-2.82,2.39C214.4,302.66,215.51,303.59,217.26,303.59ZM106,240.52a2.69,2.69,0,0,0-2.89,2.43c0,1.34,1.13,2.13,3,2.15a2.63,2.63,0,0,0,2.9-2.15,2.73,2.73,0,0,0-3-2.44Zm-2.89,67.74a2.65,2.65,0,0,0-2.88,2.39c0,.06,0,.12,0,.18a2.32,2.32,0,0,0,2.3,2.35h.21c1.76,0,3-.94,3-2.47a2.37,2.37,0,0,0-2.27-2.46Zm50.11-9.11a2.57,2.57,0,0,0,2.78-2.24,2.45,2.45,0,0,0-2.42-2.51,1.61,1.61,0,0,0-.31,0,2.74,2.74,0,0,0-3,2.36A2.89,2.89,0,0,0,153.25,299.15Zm93.14-5.29c1.76,0,2.82-.79,2.85-2.11a2.69,2.69,0,0,0-2.87-2.51h-.07a2.63,2.63,0,0,0-2.79,2.37c0,1.34,1.08,2.24,2.88,2.26ZM46.69,326.41c2,0,3.64-1.32,3.53-2.68a2.44,2.44,0,0,0-2.61-2.06,2.81,2.81,0,0,0-3.07,2.51,2.26,2.26,0,0,0,0,.26,2,2,0,0,0,2,2Zm64.6-55.05a2.84,2.84,0,0,0,3.06-2.47,2.89,2.89,0,0,0-5.68,0c0,.07,0,.15,0,.22a2.45,2.45,0,0,0,2.6,2.29Zm22,148.58a2.92,2.92,0,0,0-3.13,2.7v.09a2.2,2.2,0,0,0,2.22,2.18l.21,0a3,3,0,0,0,3-2.76C135.64,420.66,134.88,419.94,133.33,419.94ZM79,324.6a2.94,2.94,0,0,0,3.22-2.54A2.19,2.19,0,0,0,79.91,320h0c-1.94,0-3.52,1.15-3.52,2.64C76.41,323.84,77.43,324.6,79,324.6ZM134,289.16c1.76,0,2.87-1,2.91-2.36a2.52,2.52,0,0,0-2.7-2.33h0a2.85,2.85,0,0,0-2.91,2.43C131.18,288.24,132.33,289.18,134,289.16Zm39.49-3.53a2.75,2.75,0,0,0-2.88-2.61h0a2.58,2.58,0,0,0-2.74,2.37,2.72,2.72,0,0,0,2.75,2.41,2.52,2.52,0,0,0,2.88-2.1.38.38,0,0,0,0-.1ZM67.58,395.87a2,2,0,0,0-2-2.06l-.36,0a3.21,3.21,0,0,0-3.23,3c.11,1.43,1.13,1.76,2.33,1.85a3,3,0,0,0,3.25-2.71A.17.17,0,0,0,67.58,395.87Zm136.07-110c1.76,0,2.75-.81,2.73-2.22s-1.13-2.32-2.87-2.34-2.82.78-2.86,2.13S201.82,285.9,203.65,285.91ZM122,304.75c1.76,0,3.1-1,3.06-2.36a2.72,2.72,0,0,0-2.94-2.34,2.63,2.63,0,0,0-2.75,2.5v0C119.39,303.86,120.45,304.72,122,304.75Zm131.68,7.6c1.76,0,3-.78,3-2.15a2.61,2.61,0,0,0-2.8-2.4h-.06c-1.76,0-2.89.9-2.89,2.31S252,312.33,253.7,312.35ZM91.39,271.48a2.57,2.57,0,0,0,2.79-2.33.49.49,0,0,0,0-.12,2.5,2.5,0,0,0-2.69-2.29h-.06a3,3,0,0,0-2.84,2.73C88.66,270.67,89.84,271.52,91.39,271.48Zm27.21-38.63c1.76,0,2.89-.86,2.92-2.29a2.51,2.51,0,0,0-2.65-2.38h0a2.88,2.88,0,0,0-3,2.38C115.8,231.81,117,232.83,118.6,232.85Zm27.23,35a2.49,2.49,0,0,0-2.66-2.3h-.09a2.58,2.58,0,0,0-2.81,2.32.57.57,0,0,0,0,.13,2.45,2.45,0,0,0,2.64,2.23A2.69,2.69,0,0,0,145.83,267.89Zm-11.05-35.73c1.76,0,2.85-.9,2.83-2.32a2.56,2.56,0,0,0-2.52-2.31,2.62,2.62,0,0,0-2.89,2.32,1.09,1.09,0,0,0,0,.18C132.15,231.32,133.19,232.15,134.78,232.16Zm100.77,85.23c1.76,0,2.68-.81,2.69-2.26a2.42,2.42,0,0,0-2.45-2.4h-.19a2.7,2.7,0,0,0-2.77,2.36C232.82,316.44,233.94,317.37,235.55,317.39Zm10.89,48.25a2,2,0,0,0,2-1.88v-.06c.12-1.26-1.77-2.71-3.32-2.71a2.1,2.1,0,0,0-2.28,1.9,1.55,1.55,0,0,0,0,.22C242.84,364.53,244.25,365.64,246.44,365.64ZM71.53,277.12a2.6,2.6,0,0,0,2.91-2.26.15.15,0,0,0,0-.07A2.39,2.39,0,0,0,72,272.5h-.08A2.69,2.69,0,0,0,69,274.86a2.35,2.35,0,0,0,2.42,2.27ZM192,244.83a2.5,2.5,0,0,0-2.79,2.15c0,.09,0,.18,0,.27a2.75,2.75,0,0,0,5.45-.25C194.56,245.64,193.57,244.83,192,244.83ZM61.08,341.52c2.29,0,3.94-1.32,3.86-2.81a1.9,1.9,0,0,0-1.86-1.94,1,1,0,0,0-.24,0c-1.64,0-3.4,1.56-3.33,2.94A1.76,1.76,0,0,0,61.08,341.52Zm142.57-77.41c0-1.41-1.06-2.29-2.86-2.32s-2.73.74-2.8,2,1.31,2.45,3,2.49a2.36,2.36,0,0,0,2.65-2S203.65,264.15,203.65,264.11Zm-22.91-2.69c1.76,0,2.77-.85,2.78-2.19a2.4,2.4,0,0,0-2.4-2.39h-.2a2.72,2.72,0,0,0-2.93,2.49v.07c0,1.21,1.16,2,2.77,2Zm-17.62,4.07a2.42,2.42,0,0,0,2.83-1.95.43.43,0,0,0,0-.11,2.59,2.59,0,0,0-2.5-2.59,2.81,2.81,0,0,0-2.94,2.38c0,1.23,1.11,2.18,2.64,2.27Zm60.73,55.65a7.8,7.8,0,0,0,1.35-.24,2,2,0,0,0,1.61-2.24,2,2,0,0,0-2.1-1.76,7.5,7.5,0,0,0-1.34,0c-1.36.17-2.43.79-2.33,2.31s1.45,1.86,2.86,1.93ZM59.07,307.05c0-1.31-1.06-2.17-2.63-2.17a2.62,2.62,0,0,0-2.8,2.29,2.49,2.49,0,0,0,2.69,2.29h.06a2.61,2.61,0,0,0,2.73-2.36Zm192.09,37.67a1.93,1.93,0,0,0-2.18,2,3.23,3.23,0,0,0,3.4,2.57c1.27,0,2.18-.53,2.24-1.92s-1.45-2.59-3.4-2.55Zm-18.77-85.35a2.27,2.27,0,0,0,2.52-2,3.09,3.09,0,0,0,0-.43c0-1.36-.95-2.06-2.66-2.06s-2.8.92-2.78,2.2a2.58,2.58,0,0,0,2.85,2.3Zm1.77,87.49a2.93,2.93,0,0,0-3.18-2.65h0a2.06,2.06,0,0,0-2.25,1.82,1.5,1.5,0,0,0,0,.3,3,3,0,0,0,3.34,2.39c1.31-.08,2.21-.58,2.21-1.86Zm-66.67,98.53a2.47,2.47,0,0,0-2.32-2.61h-.29a2.29,2.29,0,0,0-2.51,2,2.44,2.44,0,0,0,0,.27,2.77,2.77,0,0,0,2.68,2.46,2.19,2.19,0,0,0,2.43-1.94C167.48,445.52,167.48,445.45,167.49,445.39ZM87.86,240a2.48,2.48,0,0,0,2.76-2.17.25.25,0,0,0,0-.08,2.29,2.29,0,0,0-2.57-2.22,2.59,2.59,0,0,0-2.8,2.27C85.22,239,86.29,240,87.86,240ZM49.2,347.61a2.58,2.58,0,0,0,2.78-2.3,2.69,2.69,0,0,0-5.3,0v.17a2.26,2.26,0,0,0,2.39,2.11Zm57-62.7a2.44,2.44,0,0,0-2.52,2.36,2.24,2.24,0,0,0,2.11,2.35,2.87,2.87,0,0,0,2.84-2.47A2.42,2.42,0,0,0,106.23,284.91Zm103.76-45a2.22,2.22,0,0,0,2.5-1.9,1.45,1.45,0,0,0,0-.36c0-1.37-1-2.22-2.57-2.2a2.42,2.42,0,0,0-2.59,2.23v0a2.35,2.35,0,0,0,2.48,2.2ZM101.49,439.35a1.89,1.89,0,0,0-1.87-1.91h-.11a3.09,3.09,0,0,0-3,2.79,1.76,1.76,0,0,0,1.61,1.9h.27A3,3,0,0,0,101.49,439.35Zm39.81-24.68a2.43,2.43,0,0,0,2.6-2.25s0-.05,0-.07a2.31,2.31,0,0,0-2.24-2.24,2.63,2.63,0,0,0-2.77,2.48v0a2.08,2.08,0,0,0,2.07,2.08,1.83,1.83,0,0,0,.33,0ZM136,443.2a2.65,2.65,0,0,0-2.68,2.38,2.28,2.28,0,0,0,2.2,2.35h.08a2.36,2.36,0,0,0,.57-4.69l-.29,0ZM38,376.75A1.76,1.76,0,0,0,36.27,375a1.3,1.3,0,0,0-.34,0c-1.5,0-3.09,1.33-3,2.58a1.78,1.78,0,0,0,2,1.76A2.75,2.75,0,0,0,38,376.93C38,376.87,38,376.81,38,376.75Zm197.22,16.09a2.13,2.13,0,0,0,2.32-1.9c0-.06,0-.12,0-.18a2.31,2.31,0,0,0-2.54-2.05H235a2,2,0,0,0-2.18,1.72,2.71,2.71,0,0,0,0,.29C232.73,392.08,233.79,392.84,235.23,392.84ZM177.8,425a2.05,2.05,0,0,0-2.05-2.05l-.28,0a2.13,2.13,0,0,0-2.32,1.9c0,.05,0,.11,0,.16a2.31,2.31,0,0,0,2.43,2.19h.06A2.2,2.2,0,0,0,177.8,425Zm85-48.43a2.2,2.2,0,0,0-2.43,1.95v0c0,1.13,1.28,2,2.85,2,1.22,0,2.05-.53,2.08-1.87a2.29,2.29,0,0,0-2.43-2.14Zm-19.25-61.49c1.52,0,2.61-.76,2.63-1.95s-1.06-1.94-2.47-1.94-2.32.44-2.5,1.88C241.1,314.18,242.16,315.05,243.58,315.08ZM53.07,365.89a2.45,2.45,0,0,0,2.61-2,2.25,2.25,0,0,0-2.24-2A2.35,2.35,0,0,0,51,364C51,365.48,52.05,365.75,53.07,365.89Zm165.12,52.17a2.13,2.13,0,0,0-1.93-2.33h-.33a2.21,2.21,0,0,0-2.22,2.18v0a2.16,2.16,0,0,0,2.3,2h.08C217.34,419.85,218.17,419.24,218.19,418.06Zm-66.72,25.78c1.76,0,2.71-.85,2.68-2a1.89,1.89,0,0,0-1.81-2h-.22a2.16,2.16,0,0,0-2.2,2.13v.09a1.59,1.59,0,0,0,1.38,1.77Z"></path><path d="M121.12,219a4.18,4.18,0,0,1,3.94-4.4h.31a4.7,4.7,0,0,1,4.46,4.91c0,.08,0,.16,0,.24a4.12,4.12,0,0,1-3.85,4.35h-.28A4.88,4.88,0,0,1,121.12,219Z"></path></g></g><g id="Layer_2-2" data-name="Layer 2"><g id="Layer_1-2-2" data-name="Layer 1-2"><path class="cls-1" d="M284.53,99.9l-116,200.85H400.44Zm19.28,188.9-18.54-1h-1.5l-18.53,1-18.53-1-61.56,3.4,33.72-51.6L227.2,223l10.12-15.53.34-.68.41-.63,8.42-16.56,10.16-15.51,27.88-55,27.79,55,10.15,15.53,8.38,16.57.41.63.35.67L341.75,223l8.39,16.56,33.72,51.61-61.57-3.43Z"></path><path class="cls-1" d="M341.67,244.45l-7.58-17-10.95-15.07-.3-.7-.44-.61-7.58-17-10.95-15.08-19.34-43.52L265.1,178.94l-11,15.08-7.58,17-.44.61-.31.7-11,15.07-7.58,17-28,38.53,47.39-5L265.2,280,283.73,278l.75.08.75-.08L303.77,280,322.29,278l47.37,5Zm-37.9,25.8-18.54-3-.75.12-.75-.12-18.53,3-18.53-3-28,4.51,17.88-22,6.68-17.54,11.85-14.56.27-.72.49-.59,6.67-17.53,11.86-14.57,10.12-26.41,10.07,26.46,11.86,14.56,6.74,17.53.49.59.26.72,11.86,14.55,6.74,17.53,17.89,22-28.15-4.53Z"></path><path class="cls-1" d="M325.43,253.82l-5.84-18-12.68-14.08-.22-.73-.52-.56-5.88-18L287.6,188.33l-3.07-9.63-3.13,9.63-12.72,14.08-5.86,18-.51.56-.24.73L249.46,235.8l-5.86,18-6.74,7.53,9.9-2.1,18.53,3.93,18.53-3.93.76.16.74-.16,18.55,3.93,18.42-3.93,9.89,2.1Zm-21.66,1.54-18.54-5-.75.21-.75-.21-18.53,5L252.9,252l3.3-12.31,13.62-13.49.21-.74.55-.56,4.91-18.57,9-9,9,9,4.92,18.57.55.55.21.74,13.62,13.49L316.1,252Z"></path><path class="cls-1" d="M308,242.51l-14.49-13-.17-.77-.58-.54-4.05-19-4.16-3.84-4.25,3.84-4,19.06-.58.54-.16.77-14.49,13-1.17,5.53,5.39,1.75,18.54-6,.75.24.74-.24,18.55,6,5.39-1.75Zm-22.75-6.1-.75.28-.75-.28-11.44,4.43,9.54-7.69.12-.8.63-.51,1.89-12.14,1.89,12.14.62.51.12.8,9.56,7.69Z"></path></g></g><g id="Layer_2-3" data-name="Layer 2"><g id="Layer_1-2-3" data-name="Layer 1-2"><polygon class="cls-2" points="397.7 307.46 418.33 295.48 418.33 319.32 397.7 331.21 397.7 307.46"></polygon><polygon class="cls-3" points="397.7 307.46 377.05 295.59 377.06 319.32 397.7 331.21 397.7 307.46"></polygon><polygon class="cls-4" points="397.62 283.65 377.05 295.59 397.7 307.46 418.33 295.48 397.62 283.65"></polygon><polygon class="cls-2" points="439 331.19 459.65 319.22 459.6 366.88 438.96 378.77 439 331.19"></polygon><polygon class="cls-3" points="439 331.19 418.35 319.32 418.32 366.89 438.96 378.78 439 331.19"></polygon><polygon class="cls-4" points="438.92 307.38 418.35 319.32 439 331.19 459.65 319.22 438.92 307.38"></polygon><polygon class="cls-2" points="397.67 355.03 418.32 343.06 418.32 366.89 397.68 378.78 397.67 355.03"></polygon><polygon class="cls-3" points="377.02 343.16 335.77 319.53 335.8 343.26 377.03 366.92 377.02 343.16"></polygon><polygon class="cls-3" points="397.67 355.03 377.02 343.16 377.03 366.92 397.68 378.78 397.67 355.03"></polygon><polygon class="cls-4" points="418.32 343.06 397.67 331.19 356.24 307.41 335.77 319.53 377.02 343.16 377.02 343.16 397.67 355.03 418.32 343.06"></polygon><polygon class="cls-3" points="377.18 366.96 356.52 355.1 356.55 378.83 377.19 390.72 377.18 366.96"></polygon><polygon class="cls-2" points="335.87 367.07 356.52 355.1 356.52 378.93 335.89 390.82 335.87 367.07"></polygon><polygon class="cls-3" points="335.87 367.07 315.22 355.2 315.25 378.93 335.89 390.82 335.87 367.07"></polygon><polygon class="cls-4" points="335.8 343.26 315.22 355.2 335.87 367.07 356.52 355.1 335.8 343.26"></polygon><polygon class="cls-2" points="377.02 390.74 397.66 378.77 397.66 402.61 377.03 414.49 377.02 390.74"></polygon><polygon class="cls-3" points="377.02 390.74 356.37 378.87 356.4 402.61 377.02 414.49 377.02 390.74"></polygon><polygon class="cls-4" points="376.94 366.94 356.37 378.87 377.02 390.74 397.67 378.77 376.94 366.94"></polygon><polygon class="cls-2" points="418.39 390.69 439.02 378.71 439.02 402.55 418.39 414.44 418.39 390.69"></polygon><polygon class="cls-3" points="418.39 390.69 397.74 378.82 397.75 402.55 418.39 414.44 418.39 390.69"></polygon><polygon class="cls-4" points="418.3 366.89 397.74 378.82 418.39 390.69 439.02 378.71 418.3 366.89"></polygon><polygon class="cls-2" points="459.69 414.43 480.34 402.45 480.29 450.11 459.65 462 459.69 414.43"></polygon><polygon class="cls-3" points="459.69 414.43 439.04 402.55 439.01 450.13 459.65 462.01 459.69 414.43"></polygon><polygon class="cls-4" points="459.61 390.63 439.04 402.55 459.69 414.43 480.34 402.45 459.61 390.63"></polygon><polygon class="cls-3" points="397.71 426.39 356.46 402.76 356.49 426.49 397.72 450.15 397.71 426.39"></polygon><polygon class="cls-4" points="439.01 426.29 418.36 414.43 376.93 390.64 356.46 402.76 397.71 426.39 397.71 426.39 418.36 438.26 439.01 426.29"></polygon><polygon class="cls-2" points="542.09 319.13 562.74 307.16 562.74 331 542.1 342.89 542.09 319.13"></polygon><polygon class="cls-3" points="542.09 319.13 521.43 307.25 521.46 331 542.1 342.89 542.09 319.13"></polygon><polygon class="cls-4" points="542.01 295.33 521.43 307.25 542.09 319.13 562.74 307.16 542.01 295.33"></polygon><polygon class="cls-2" points="583.39 342.86 604.04 330.9 603.99 378.56 583.35 390.45 583.39 342.86"></polygon><polygon class="cls-3" points="583.39 342.86 562.74 330.99 562.71 378.56 583.35 390.45 583.39 342.86"></polygon><polygon class="cls-4" points="583.31 319.06 562.74 330.99 583.39 342.86 604.04 330.9 583.31 319.06"></polygon><polygon class="cls-2" points="542.06 366.7 562.71 354.74 562.71 378.56 542.07 390.45 542.06 366.7"></polygon><polygon class="cls-3" points="521.41 354.84 480.16 331.21 480.18 354.94 521.42 378.59 521.41 354.84"></polygon><polygon class="cls-3" points="542.06 366.7 521.41 354.84 521.42 378.59 542.07 390.45 542.06 366.7"></polygon><polygon class="cls-4" points="562.71 354.74 542.06 342.86 500.63 319.09 480.16 331.21 521.41 354.84 521.41 354.84 542.06 366.7 562.71 354.74"></polygon><polygon class="cls-3" points="521.56 378.64 500.91 366.76 500.94 390.51 521.58 402.4 521.56 378.64"></polygon><polygon class="cls-2" points="480.26 378.74 500.91 366.78 500.91 390.6 480.27 402.49 480.26 378.74"></polygon><polygon class="cls-3" points="480.26 378.74 459.61 366.87 459.64 390.6 480.27 402.49 480.26 378.74"></polygon><polygon class="cls-4" points="480.18 354.94 459.61 366.87 480.26 378.74 500.91 366.78 480.18 354.94"></polygon><polygon class="cls-2" points="521.41 402.41 542.06 390.45 542.06 414.29 521.42 426.17 521.41 402.41"></polygon><polygon class="cls-3" points="521.41 402.41 500.76 390.55 500.78 414.29 521.42 426.17 521.41 402.41"></polygon><polygon class="cls-4" points="521.33 378.61 500.76 390.55 521.41 402.41 542.06 390.45 521.33 378.61"></polygon><polygon class="cls-2" points="562.77 402.36 583.42 390.4 583.42 414.23 562.79 426.12 562.77 402.36"></polygon><polygon class="cls-3" points="562.77 402.36 542.12 390.5 542.15 414.23 562.77 426.12 562.77 402.36"></polygon><polygon class="cls-4" points="562.7 378.56 542.12 390.5 562.77 402.36 583.42 390.4 562.7 378.56"></polygon><polygon class="cls-4" points="604 402.3 583.42 414.23 604.08 426.1 624.73 414.13 604 402.3"></polygon><polygon class="cls-4" points="583.4 437.97 562.75 426.11 521.32 402.32 500.85 414.44 542.1 438.07 542.1 438.07 562.75 449.93 583.4 437.97"></polygon><polygon class="cls-2" points="500.99 224.12 521.64 212.16 521.64 236 501 247.88 500.99 224.12"></polygon><polygon class="cls-3" points="500.99 224.12 480.34 212.25 480.36 236 501 247.88 500.99 224.12"></polygon><polygon class="cls-4" points="500.91 200.32 480.34 212.25 500.99 224.12 521.64 212.16 500.91 200.32"></polygon><polygon class="cls-2" points="542.29 247.86 562.94 235.9 562.89 283.56 542.25 295.44 542.29 247.86"></polygon><polygon class="cls-3" points="542.29 247.86 521.64 235.99 521.61 283.57 542.25 295.46 542.29 247.86"></polygon><polygon class="cls-4" points="542.21 224.06 521.64 235.99 542.29 247.86 562.94 235.9 542.21 224.06"></polygon><polygon class="cls-2" points="500.96 271.7 521.61 259.73 521.61 283.57 500.98 295.46 500.96 271.7"></polygon><polygon class="cls-3" points="480.31 259.84 439.06 236.2 439.09 259.94 480.33 283.58 480.31 259.84"></polygon><polygon class="cls-3" points="500.96 271.7 480.31 259.84 480.33 283.58 500.98 295.46 500.96 271.7"></polygon><polygon class="cls-4" points="521.61 259.73 500.96 247.86 459.53 224.09 439.06 236.2 480.31 259.84 480.31 259.84 500.96 271.7 521.61 259.73"></polygon><polygon class="cls-3" points="480.47 283.63 459.82 271.76 459.84 295.51 480.48 307.39 480.47 283.63"></polygon><polygon class="cls-2" points="439.17 283.74 459.82 271.77 459.82 295.61 439.18 307.5 439.17 283.74"></polygon><polygon class="cls-3" points="439.17 283.74 418.51 271.86 418.54 295.61 439.18 307.5 439.17 283.74"></polygon><polygon class="cls-4" points="439.09 259.94 418.51 271.86 439.17 283.74 459.82 271.77 439.09 259.94"></polygon><polygon class="cls-2" points="480.31 307.42 500.96 295.44 500.96 319.28 480.33 331.17 480.31 307.42"></polygon><polygon class="cls-3" points="480.31 307.42 459.66 295.55 459.69 319.28 480.33 331.17 480.31 307.42"></polygon><polygon class="cls-4" points="480.24 283.61 459.66 295.55 480.31 307.42 500.96 295.44 480.24 283.61"></polygon><polygon class="cls-2" points="356.63 212.46 377.28 200.48 377.28 224.32 356.64 236.2 356.63 212.46"></polygon><polygon class="cls-3" points="356.63 212.46 335.98 200.58 336 224.32 356.63 236.2 356.63 212.46"></polygon><polygon class="cls-4" points="356.55 188.64 335.98 200.58 356.63 212.46 377.28 200.48 356.55 188.64"></polygon><polygon class="cls-2" points="397.93 236.19 418.58 224.21 418.53 271.88 397.89 283.76 397.93 236.19"></polygon><polygon class="cls-3" points="397.93 236.19 377.28 224.32 377.25 271.89 397.89 283.78 397.93 236.19"></polygon><polygon class="cls-4" points="397.85 212.38 377.28 224.32 397.93 236.19 418.58 224.21 397.85 212.38"></polygon><polygon class="cls-2" points="356.6 260.03 377.25 248.05 377.25 271.89 356.61 283.78 356.6 260.03"></polygon><polygon class="cls-3" points="335.95 248.16 294.7 224.52 294.73 248.26 335.96 271.92 335.95 248.16"></polygon><polygon class="cls-3" points="356.6 260.03 335.95 248.16 335.96 271.9 356.61 283.78 356.6 260.03"></polygon><polygon class="cls-4" points="377.25 248.05 356.6 236.19 315.17 212.41 294.7 224.52 335.95 248.16 335.95 248.16 356.6 260.03 377.25 248.05"></polygon><polygon class="cls-3" points="336.11 271.95 315.45 260.09 315.48 283.83 336.12 295.71 336.11 271.95"></polygon><polygon class="cls-2" points="294.8 272.06 315.45 260.09 315.45 283.93 294.82 295.82 294.8 272.06"></polygon><polygon class="cls-3" points="294.8 272.06 274.15 260.2 274.18 283.93 294.82 295.82 294.8 272.06"></polygon><polygon class="cls-4" points="294.73 248.26 274.15 260.2 294.8 272.06 315.45 260.09 294.73 248.26"></polygon><polygon class="cls-2" points="335.95 295.74 356.6 283.76 356.6 307.6 335.96 319.49 335.95 295.74"></polygon><polygon class="cls-3" points="335.95 295.74 315.3 283.87 315.33 307.6 335.95 319.49 335.95 295.74"></polygon><polygon class="cls-4" points="335.87 271.94 315.3 283.87 335.95 295.74 356.6 283.76 335.87 271.94"></polygon></g></g></svg>